<?xml version="1.0" standalone="no"?>
<!DOCTYPE svg PUBLIC "-//W3C//DTD SVG 20010904//EN"
 "http://www.w3.org/TR/2001/REC-SVG-20010904/DTD/svg10.dtd">
<svg version="1.0" xmlns="http://www.w3.org/2000/svg"
 width="2134.000000pt" height="2134.000000pt" viewBox="0 0 2134.000000 2134.000000"
 preserveAspectRatio="xMidYMid meet">
<metadata>
Created by potrace 1.11, written by Peter Selinger 2001-2013
</metadata>
<g transform="translate(0.000000,2134.000000) scale(0.100000,-0.100000)"
fill="#000000" stroke="none">
<path d="M14715 18967 c-3 -7 -4 -158 -3 -337 l3 -325 1274 -5 1274 -5 -1447
-1439 -1447 -1440 241 -240 240 -241 1445 1445 1445 1445 0 -1273 0 -1272 340
0 340 0 0 1850 0 1850 -1850 0 c-1478 0 -1852 -3 -1855 -13z"/>
<path d="M10385 15183 c-1131 -72 -2184 -558 -2980 -1374 -621 -638 -1043
-1444 -1209 -2314 -59 -310 -70 -442 -71 -835 0 -394 7 -489 55 -775 161 -946
604 -1794 1291 -2472 179 -177 284 -268 464 -403 647 -484 1356 -771 2175
-881 199 -26 687 -37 906 -20 1488 117 2814 948 3579 2241 151 255 308 607
403 900 191 592 259 1233 197 1850 -68 664 -286 1317 -629 1885 -770 1271
-2102 2089 -3578 2194 -133 10 -478 12 -603 4z m645 -688 c550 -53 1052 -209
1524 -474 1004 -563 1715 -1552 1920 -2671 48 -262 60 -405 60 -705 0 -375
-28 -611 -115 -956 -318 -1269 -1297 -2315 -2546 -2723 -947 -309 -1976 -243
-2868 183 -1136 543 -1942 1603 -2154 2834 -52 300 -70 731 -42 1012 59 590
230 1119 524 1615 257 434 626 842 1032 1143 295 218 651 410 995 534 300 109
689 191 1020 216 128 10 520 5 650 -8z"/>
<path d="M5040 4908 l-1445 -1439 -3 1270 -2 1271 -338 -2 -337 -3 -3 -1847
-2 -1848 1855 0 1855 0 0 335 0 335 -1277 0 -1278 0 1448 1448 1447 1447 -237
237 -238 236 -1445 -1440z"/>
</g>
</svg>
