<?xml version="1.0" standalone="no"?>
<!DOCTYPE svg PUBLIC "-//W3C//DTD SVG 20010904//EN"
 "http://www.w3.org/TR/2001/REC-SVG-20010904/DTD/svg10.dtd">
<svg version="1.0" xmlns="http://www.w3.org/2000/svg"
 width="1024.000000pt" height="1024.000000pt" viewBox="0 0 1024.000000 1024.000000"
 preserveAspectRatio="xMidYMid meet">
<metadata>
Created by potrace 1.11, written by Peter Selinger 2001-2013
</metadata>
<g transform="translate(0.000000,1024.000000) scale(0.100000,-0.100000)"
fill="#000000" stroke="none">
<path d="M2251 7599 c-95 -19 -194 -103 -255 -218 -113 -215 -123 -579 -22
-779 27 -52 166 -263 212 -319 l27 -33 -54 0 c-169 0 -604 -23 -660 -35 -126
-26 -225 -92 -256 -173 -14 -38 -18 -76 -18 -192 0 -126 3 -154 23 -212 13
-37 32 -78 42 -91 18 -23 18 -24 -8 -78 -25 -51 -27 -62 -26 -184 2 -140 14
-194 61 -268 20 -32 24 -47 18 -76 -3 -20 -9 -88 -12 -151 -6 -150 11 -217 79
-307 43 -57 48 -69 48 -116 0 -64 23 -165 49 -215 77 -149 232 -182 928 -202
572 -15 679 5 895 168 133 101 241 139 441 157 l77 7 0 -142 0 -143 962 6
c529 4 1104 7 1279 7 l318 0 3 148 3 147 54 3 c128 7 254 -32 317 -100 48 -50
121 -168 171 -277 49 -104 80 -153 156 -248 50 -62 226 -226 347 -323 35 -28
69 -59 76 -68 19 -28 42 -116 65 -257 26 -159 62 -288 95 -337 13 -21 43 -48
67 -60 36 -20 56 -23 142 -22 89 1 107 4 158 29 127 63 220 202 258 390 18 84
20 126 17 265 -4 146 -7 173 -31 238 -30 86 -94 194 -194 330 -39 53 -70 98
-69 99 1 1 137 7 302 13 354 12 423 20 506 58 82 37 121 71 150 130 21 43 23
60 23 192 0 158 -15 232 -61 302 l-24 37 21 35 c30 52 41 150 29 273 -9 94
-14 114 -48 177 l-39 72 15 49 c10 36 13 84 10 170 -3 104 -8 128 -31 179 -15
33 -43 79 -62 102 -32 39 -35 49 -44 141 -21 231 -103 301 -390 338 -280 36
-985 48 -1147 20 -107 -19 -203 -62 -299 -135 -96 -72 -129 -93 -207 -124 -66
-26 -226 -56 -300 -56 l-38 0 0 133 0 134 -962 6 c-529 4 -1105 7 -1280 7
l-318 0 0 -151 0 -151 -122 4 c-133 4 -167 15 -238 75 -46 38 -121 156 -185
288 -58 122 -100 187 -169 268 -51 59 -234 226 -336 307 -36 28 -73 66 -82 83
-19 35 -39 122 -62 267 -20 126 -61 266 -92 313 -49 75 -164 104 -303 76z
m166 -229 c12 -25 26 -81 33 -125 20 -138 50 -296 67 -343 24 -72 51 -104 164
-198 167 -140 285 -251 334 -316 25 -34 75 -118 110 -187 79 -154 170 -296
223 -348 87 -84 190 -120 375 -130 l117 -6 0 -621 0 -622 -122 -12 c-68 -6
-152 -19 -188 -28 -97 -24 -235 -93 -323 -162 -93 -73 -160 -106 -241 -121
-76 -14 -565 -14 -802 -1 -221 13 -420 37 -456 56 -41 21 -57 62 -64 161 -8
116 -17 143 -70 205 -24 29 -49 68 -54 87 -15 56 -12 182 6 235 23 67 14 124
-30 196 -30 48 -38 74 -47 142 -14 109 -6 143 43 196 39 42 40 46 36 98 -4 48
-10 60 -46 97 -32 33 -45 56 -58 107 -18 72 -15 200 6 240 32 60 148 75 630
85 168 4 320 11 338 17 47 14 66 48 60 107 -6 64 -36 118 -133 241 -97 122
-179 255 -201 324 -24 75 -30 301 -10 394 39 185 129 287 246 279 31 -2 38 -7
57 -47z m5688 -1301 c193 -11 323 -25 391 -42 75 -19 103 -75 104 -205 0 -76
17 -119 70 -179 22 -25 44 -62 50 -82 16 -60 14 -171 -5 -235 -22 -76 -15
-124 29 -195 39 -64 61 -163 54 -241 -4 -39 -13 -58 -46 -96 -34 -38 -42 -54
-42 -86 0 -47 11 -71 55 -118 47 -50 69 -130 63 -237 -5 -98 -22 -129 -83
-150 -59 -20 -191 -31 -455 -38 -416 -10 -460 -14 -487 -41 -54 -54 -18 -160
108 -319 173 -217 218 -311 234 -490 8 -86 -8 -213 -41 -315 -40 -127 -131
-207 -225 -198 -29 3 -37 9 -56 48 -13 25 -28 81 -34 125 -22 156 -61 341 -81
380 -31 59 -44 74 -148 160 -155 129 -287 253 -336 319 -26 33 -69 106 -96
161 -114 226 -207 359 -292 416 -83 55 -140 70 -296 78 l-135 6 -3 626 -2 626
118 11 c222 22 366 75 518 193 123 95 174 115 319 129 95 9 511 3 750 -11z
m-1890 -959 l0 -915 -452 -3 -453 -2 0 920 0 920 453 -2 452 -3 0 -915z
m-1285 0 l0 -910 -450 0 -450 0 0 910 0 910 450 0 450 0 0 -910z"/>
</g>
</svg>
