<svg id="Layer_1" data-name="Layer 1" xmlns="http://www.w3.org/2000/svg" viewBox="0 0 256 60"><defs><style>.cls-1{fill:#0d2845;}</style></defs><title>douche</title><path class="cls-1" d="M46.25,6.9A34.09,34.09,0,0,0,25.07,0,29.81,29.81,0,0,0,8.41,4.73q-7.24,4.72-7.24,13A9.09,9.09,0,0,0,3.93,24.3q2.76,2.84,8.45,3.14l.78-5a4.82,4.82,0,0,1-3.82-1.82,5.9,5.9,0,0,1-1.09-3.37A7.58,7.58,0,0,1,10.9,11.4q4.59-4.27,12.46-4.27a21.52,21.52,0,0,1,11.29,3.1q9.26,5.58,9.26,18.37,0,10-5.06,17.06Q33.94,52.41,25,52.4a16.17,16.17,0,0,1-3.89-.62,32.15,32.15,0,0,0,1.95-7.36L28,11.32a17.5,17.5,0,0,0-3.74-.39,13.5,13.5,0,0,0-7.39,2c-.11.72-.3,2.22-.59,4.49s-.67,5.26-1.16,9S14.2,33,13.94,35.19Q0,41.63,0,50.77a8.58,8.58,0,0,0,2.49,6.36,9.41,9.41,0,0,0,7,2.48,11.89,11.89,0,0,0,7.36-2.17,14.87,14.87,0,0,0,4.82,1.86,25.57,25.57,0,0,0,5.77.7,26.82,26.82,0,0,0,20.47-8.76q7.88-8.61,7.87-22.33a31.87,31.87,0,0,0-2.49-12.75A23,23,0,0,0,46.25,6.9ZM12.38,46.59a9.16,9.16,0,0,1-1.67,4.53,3.25,3.25,0,0,1-2.3,1.44c-1.77,0-2.65-.93-2.65-2.79q0-3.89,7.32-8ZM78.56,22q-9.34,0-15.42,5.81t-6,15.5A15.69,15.69,0,0,0,62,55q4.88,4.73,13.2,4.73a19.18,19.18,0,0,0,14.21-6q5.88-6,5.88-16a14.86,14.86,0,0,0-4.79-11.16A16.62,16.62,0,0,0,78.56,22ZM81.79,49.3q-2.54,4.11-6.27,4.11A6.08,6.08,0,0,1,70,50.46,13.86,13.86,0,0,1,68.13,43a21.92,21.92,0,0,1,2.72-10.54c1.66-2.79,3.73-4.19,6.19-4.19a5.87,5.87,0,0,1,5.49,3.26,16.78,16.78,0,0,1,1.79,8.37A17.48,17.48,0,0,1,81.79,49.3Zm174.21-7q-2.56,5.8-9.11,11.39a26.91,26.91,0,0,1-7.75,4.42,25.62,25.62,0,0,1-9.22,1.71c-5.19,0-9.3-1.58-12.3-4.73a16.14,16.14,0,0,1-1.26-1.5,12.63,12.63,0,0,1-11,6.07q-4.83,0-7.16-2.94a9.84,9.84,0,0,1-2.34-6.21l1.87-17.13a5.51,5.51,0,0,0-1.09-3.49,4.18,4.18,0,0,0-3.5-1.39,5.23,5.23,0,0,0-4.09,1.9,11.61,11.61,0,0,0-2.45,5q-.56,4.41-1.64,12.91c-.73,5.65-1.19,9.34-1.4,11H173.23c.32-2.64.62-5.18.91-7.65l-1.06,1a27.63,27.63,0,0,1-7.94,5,26.37,26.37,0,0,1-10.28,2.17A16.05,16.05,0,0,1,143.14,55a16.27,16.27,0,0,1-1.93-2.32A13,13,0,0,1,138,56.59a12.71,12.71,0,0,1-8,3.1q-6.77,0-9.11-5.19a13,13,0,0,1-10.82,5.19c-3.73,0-6.62-.93-8.64-2.79a9.46,9.46,0,0,1-3-7.29,31.47,31.47,0,0,1,.39-3.8q1.8-14.41,2.73-22.94A13.38,13.38,0,0,1,106,22a22.47,22.47,0,0,1,3,.15,3.43,3.43,0,0,1,2,1.16,4.1,4.1,0,0,1,.93,2.87L109.31,46a10.78,10.78,0,0,0-.15,1.7q0,4.57,4.2,4.58,3.9,0,6.46-3.8c0-.57.06-1.47.16-2.71l2.57-20.62a4.49,4.49,0,0,1,2.34-2.21,9.89,9.89,0,0,1,4.47-.89,8.22,8.22,0,0,1,4,.77q-3.19,25.11-3.19,26.74c0,2.07.75,3.11,2.26,3.11,1.35,0,2.81-.92,4.4-2.76a14,14,0,0,0,1.93-3,20.31,20.31,0,0,1-.42-4.14q0-9.23,6.23-15A20.09,20.09,0,0,1,158.52,22c4,0,7.16.82,9.5,2.48a7.63,7.63,0,0,1,3.5,6.51,6.34,6.34,0,0,1-1.87,4.57A11.33,11.33,0,0,1,161.32,39a22.42,22.42,0,0,0,1.17-6q0-5-4.52-5-3.34,0-6,3.8a16.64,16.64,0,0,0-2.8,9.61c0,3.68.81,6.5,2.45,8.49a8.24,8.24,0,0,0,6.73,3q5.14,0,10.86-4.19a32.35,32.35,0,0,0,5.92-5.58Q179.06,9.8,180,.93a13,13,0,0,1,4.44-.62q6.08,0,6.07,3.57v.46q-1.32,12.18-2.8,21.4A13.57,13.57,0,0,1,197.06,22c3.48,0,6.23.87,8.25,2.63a8.44,8.44,0,0,1,3,6.67,31.6,31.6,0,0,1-.47,4Q206.1,47,206.09,49q0,3.65,2.42,3.65c1.34,0,2.78-.9,4.32-2.68a12.38,12.38,0,0,0,1-1.35,21.16,21.16,0,0,1-1-6.67,19,19,0,0,1,6-14,19.84,19.84,0,0,1,14.44-6A16.73,16.73,0,0,1,243,24.61a8.31,8.31,0,0,1,3.81,7A11.68,11.68,0,0,1,242,41.32Q237.24,45,228.9,46.51l-1.09-4.57A12.27,12.27,0,0,0,235,38.06a8.83,8.83,0,0,0,2.37-5.54c0-1.78-.48-3-1.44-3.64a5.5,5.5,0,0,0-3.15-1c-2.44,0-4.58,1.35-6.43,4.07a16.83,16.83,0,0,0-2.76,9.69q0,5.61,2.69,8.37A8.94,8.94,0,0,0,233,52.79a18.39,18.39,0,0,0,11.21-4,30.22,30.22,0,0,0,8.73-10.54A17.91,17.91,0,0,1,256,42.25Z"/></svg>