<?xml version="1.0" encoding="utf-8"?>
<!-- Generator: Adobe Illustrator 23.0.2, SVG Export Plug-In . SVG Version: 6.00 Build 0)  -->
<svg version="1.1" id="cool-guy-or-douche-logo" xmlns="http://www.w3.org/2000/svg" xmlns:xlink="http://www.w3.org/1999/xlink"
	 x="0px" y="0px" viewBox="0 0 356 300" style="enable-background:new 0 0 356 300;" xml:space="preserve">
<style type="text/css">
	.st0{fill:#0D2845;}
	.st1{fill:#FFFFFF;}
</style>
<path id="low" class="st0" d="M302.7,140.8c1.3,0.3,2.2,1.6,2.1,3v34.3c0,12.8-5.5,21.1-21.3,21.1c-8.2,0-13.6-2.3-16.9-6.2
	c3.3,2.7,8.1,4.2,14.9,4.2c15.7,0,21.3-8.3,21.3-21.1v-34.3C302.9,141.5,302.8,141.1,302.7,140.8z M331.2,231.5
	c-1.1-1.7-1.6-3.7-1.5-5.7c0-2.3,0.8-4.5,2.3-6.3c1.4-1.7,3.5-2.6,5.7-2.6c1.4,0,2.7,0.3,3.9,0.9c-0.2-0.4-0.4-0.7-0.7-1
	c-1.4-1.4-3.3-2.1-5.2-1.9c-2.2-0.1-4.3,0.9-5.7,2.6c-1.5,1.7-2.3,4-2.3,6.3c-0.1,2,0.4,4,1.5,5.7h-6.2c0.2,0.7,0.4,1.3,0.7,2
	L331.2,231.5z M312.3,238.9c1,1.4,1.5,3.1,1.5,4.8c0.1,3.8-1.7,7.5-4.8,9.7c-3.5,2.5-7.4,4.2-11.6,4.9l0.5,2.3
	c5.6-1,9.9-2.7,13.1-5.2c3.1-2.3,4.9-5.9,4.8-9.7C315.8,243,314.5,240.5,312.3,238.9L312.3,238.9z M294.5,263.4
	c-1.4-2.2-2.1-4.9-1.9-7.5c-0.1-3.5,0.9-6.9,2.8-9.7c1.8-2.7,4-4.1,6.4-4.1c0.8,0,1.6,0.2,2.3,0.5c-0.2-0.6-0.6-1.1-1.1-1.5
	c-0.9-0.6-2-1-3.1-1c-2.4,0-4.6,1.4-6.4,4.1c-1.9,2.9-2.9,6.3-2.8,9.7c0,3.8,0.9,6.6,2.7,8.4C293.7,262.7,294.1,263,294.5,263.4
	L294.5,263.4z M197.2,261.8c0,2,0.7,3,2.1,3.1c-0.1-0.4-0.1-0.7-0.1-1.1c0-1.1,1.1-10.1,3.2-26.9c-0.7-0.4-1.4-0.6-2.2-0.6
	C198.2,252.2,197.2,260.7,197.2,261.8L197.2,261.8z M251.5,168.9c0.1,0.3,0.1,0.7,0.1,1v6.7c0,10.6-3.7,20.6-20.5,20.6
	c-6.2,0-10.8-1.4-14.1-4.1c3.4,4.1,8.6,6.1,16.1,6.1c16.7,0,20.5-10,20.5-20.6v-6.7C253.7,170.5,252.8,169.2,251.5,168.9
	L251.5,168.9z M272.4,141.8V175c0,4.6,1.3,8.3,4.1,10.2c-1.5-2.5-2.2-5.3-2.1-8.2v-33.2c0.1-1.4-0.8-2.7-2.1-3
	C272.4,141.1,272.4,141.5,272.4,141.8L272.4,141.8z M251.6,156.1c0.2,2.2-0.2,3.3-2.6,3.7l-5,0.8c-0.5,0.1-1,0.1-1.5,0.1
	c0,0.1,0,0.1,0,0.2c0.2,1.4,1.1,2.1,3.4,1.7l5-0.8c2.5-0.4,2.9-1.4,2.6-3.7c-0.4-5.6-2-10.6-6.1-14
	C250.1,147.3,251.2,151.5,251.6,156.1L251.6,156.1z M273.1,261.2c0,2.3,0.7,3.5,2.2,3.6c-0.1-0.5-0.2-1.1-0.2-1.6
	c0-1.3,0.6-5.9,1.8-13.7c0.2-1.3,0.4-2.7,0.5-4c0.1-2.6-1-5-3-6.7c-0.2-0.2-0.4-0.3-0.6-0.5c1.1,1.5,1.7,3.3,1.6,5.2
	c-0.1,1.4-0.2,2.7-0.5,4C273.7,255.3,273.1,259.9,273.1,261.2L273.1,261.2z M257.5,215.8v0.5c-0.9,8.2-1.8,15.3-2.8,21.5
	c0.8-0.7,1.7-1.4,2.6-1.9c0.8-5.2,1.5-11.1,2.2-17.6v-0.5c0.1-1.4-0.8-2.6-2.1-3C257.5,215.2,257.5,215.5,257.5,215.8L257.5,215.8z
	 M256.1,242.5c-1.2,1.4-2,3.2-2.4,5c-0.4,3-0.9,7.3-1.6,13s-1.2,9.4-1.4,11.1h-8.1c-0.1,0.7-0.2,1.3-0.2,2h10.3
	c0.2-1.7,0.7-5.4,1.4-11.1s1.3-10,1.6-13c0.4-1.8,1.2-3.6,2.4-5c1-1.2,2.5-1.9,4.1-1.9c0.7,0,1.4,0.1,2.1,0.3
	c-0.2-0.3-0.3-0.6-0.6-0.9c-0.9-1-2.2-1.5-3.5-1.4C258.6,240.5,257.1,241.2,256.1,242.5L256.1,242.5z M229,242.5
	c-0.7-1.5-2-2.3-4-2.3c-2.2,0-4.2,1.3-6,3.8c-1.9,2.9-2.9,6.2-2.8,9.7c0,3.7,0.8,6.5,2.4,8.5c0.5,0.6,1,1.1,1.7,1.5
	c-1.5-2.4-2.3-5.2-2.1-8.1c-0.1-3.4,0.9-6.8,2.8-9.7c1.8-2.5,3.7-3.8,6-3.8C227.7,242.1,228.4,242.2,229,242.5L229,242.5z
	 M231.2,148.7c-8.3,0-9.7,8.1-9.7,19.3c0,8.9,0.8,14.9,4.6,17.4c-2.1-3.1-2.6-8.3-2.6-15.4c0-11.1,1.4-19.3,9.7-19.3
	c1.8-0.1,3.6,0.4,5.2,1.4C236.7,149.8,234,148.5,231.2,148.7L231.2,148.7z M232.3,174.7c0.3,1.4,1.6,2.3,3,2.1h5.3v-2h-7.3
	C232.9,174.8,232.6,174.8,232.3,174.7L232.3,174.7z M353.8,141.4L338.1,175v18.4c0.1,1.6-1.1,3-2.7,3.1c-0.2,0-0.3,0-0.5,0h-5.8
	c-0.3,0-0.6,0-0.9-0.1c0.3,1.3,1.5,2.2,2.9,2.1h5.7c1.6,0.1,3-1.1,3.1-2.7c0-0.2,0-0.3,0-0.5V177l15.7-33.7c0.5-0.9,0.2-2-0.7-2.5
	c-0.3-0.2-0.7-0.3-1.1-0.2C353.9,140.9,353.9,141.2,353.8,141.4L353.8,141.4z M190.9,270.3c1.7,2.4,4.4,3.7,8.2,3.7
	c2.9-0.1,5.8-1.2,8-3.1c1.2-1,2.2-2.3,3-3.6c-0.7-0.7-1.3-1.4-1.8-2.2c-0.8,1.5-1.9,2.8-3.2,3.9c-2.2,1.9-5.1,3-8,3.1
	C194.9,272.1,192.7,271.5,190.9,270.3z M179.2,274c4,0.1,7.9-1.7,10.4-4.8c-0.7-0.7-1.2-1.5-1.6-2.4c-4.6,5.5-12.5,6.9-18.6,3.1
	c0.3,0.5,0.7,0.9,1.2,1.3C172.5,273.1,175.4,274,179.2,274z M223.9,274.1c3.5,0,7-0.8,10.3-2.2c2.3-1,4.5-2.2,6.5-3.8
	c0.2-1.4,0.3-2.8,0.5-4.2l-1,1c-2.3,2.1-5,3.8-7.9,5c-3.2,1.4-6.7,2.2-10.3,2.2c-3.9,0.1-7.7-1.3-10.7-3.8c0.3,0.4,0.6,0.7,1,1.1
	C215.3,272.4,219.5,274.1,223.9,274.1L223.9,274.1z M178.6,236.4c0.2,0.6,0.3,1.3,0.3,1.9l-2.6,19.9c-0.1,0.6-0.2,1.1-0.2,1.7
	c0,2.3,0.8,3.8,2.4,4.3c-0.3-0.7-0.4-1.5-0.4-2.3c0-0.6,0.1-1.2,0.2-1.7l2.6-19.9c0.1-1-0.3-2.1-0.9-2.9
	C179.7,237,179.2,236.6,178.6,236.4L178.6,236.4z M237.2,238.7c0.9,1.3,1.4,2.8,1.3,4.4c0,1.7-0.6,3.4-1.9,4.6
	c-1.6,1.6-3.5,2.7-5.7,3.1c-0.2,0.7-0.4,1.4-0.6,2.3c3.1,0.1,6.1-1.2,8.3-3.4c1.2-1.2,1.9-2.9,1.9-4.6
	C240.6,242.6,239.3,240.1,237.2,238.7L237.2,238.7z M323.7,141.5l8.9,21.1l0.6-1.3l-7.5-17.8c-0.4-1.1-1.2-1.9-2.2-2.4
	C323.5,141.2,323.6,141.3,323.7,141.5L323.7,141.5z M122.4,230.2c-1.3-3.3-3.4-6.2-6.1-8.5c1.7,1.9,3.1,4.1,4.1,6.5
	c1.7,4.1,2.5,8.4,2.5,12.8c0,9.2-2.6,16.7-7.8,22.5c-5.2,5.8-12.7,9-20.5,8.8c-1.9,0-3.9-0.2-5.7-0.7c-1.7-0.3-3.3-1-4.8-1.9
	c-2.1,1.5-4.7,2.3-7.3,2.2c-2.1,0.1-4.1-0.5-5.9-1.6c0.3,0.4,0.6,0.8,0.9,1.1c1.9,1.8,4.4,2.7,7,2.5c2.6,0.1,5.2-0.7,7.3-2.2
	c1.5,0.9,3.1,1.5,4.8,1.9c1.9,0.5,3.8,0.7,5.7,0.7c7.8,0.2,15.2-3,20.4-8.8c5.2-5.8,7.8-13.3,7.8-22.5
	C124.9,238.6,124.1,234.3,122.4,230.2z M164.4,251.9c0.1-4.3-1.7-8.3-4.8-11.2c-0.2-0.2-0.5-0.4-0.8-0.7c2.3,2.8,3.6,6.3,3.5,9.9
	c0,6.7-2,12.1-5.9,16.1c-3.7,3.9-8.8,6.1-14.2,6c-5.1,0-9.2-1.4-12.4-4c0.4,0.4,0.8,0.9,1.2,1.3c3.2,3.2,7.6,4.8,13.2,4.8
	c5.4,0.1,10.5-2.1,14.2-6.1C162.4,264,164.4,258.6,164.4,251.9L164.4,251.9z M40,144.2c2.8,3.4,3.8,7.8,4.1,12
	c0.2,2.5-0.8,3.2-2.7,3.5l-5,0.9c-0.5,0.1-0.9,0.1-1.4,0.1c0,0.2,0,0.3,0,0.5c0.1,1.4,1,1.8,3.4,1.4l5-0.9c1.9-0.3,3-1,2.7-3.5
	C45.7,153,44.3,147.7,40,144.2z M44,178c0.1,0.5,0.1,1,0,1.5c-0.7,9.7-5.3,17.7-20.3,17.7c-6.2,0-10.8-1.4-14.1-4.1
	c3.4,4.1,8.6,6.1,16.1,6.1c15,0,19.6-8,20.3-17.7C46.3,179.3,45.5,178.4,44,178z M268.7,297.7c-38.1-7.7-76.8-2.7-115,0.1
	c-0.3,0.7-0.6,1.5-0.9,2.2c39-2.8,78.8-8.2,117.9-0.3l1.6-3.2l-2.7-0.5L268.7,297.7z M97.5,169.9c0-12.5-2.6-20.9-8-25.5
	c4.1,4.9,6,12.6,6,23.5c0,20.6-7,29.3-22.3,29.3c-6.1,0-10.9-1.4-14.4-4.3c3.6,4.3,9.1,6.3,16.4,6.3
	C90.6,199.2,97.5,190.5,97.5,169.9z M332.1,264.3c0.7,1,1,2.3,1,3.5c0,1.7-0.6,3.3-1.9,4.5c-2.1,2.1-5.4,2.4-7.9,0.9
	c1.9,3,5.9,3.9,8.9,2c0.4-0.2,0.7-0.5,1-0.8c1.2-1.2,1.9-2.8,1.9-4.5c0-1.7-0.7-3.4-1.9-4.6C332.9,264.9,332.5,264.5,332.1,264.3z
	 M189,189.4v4.1c0.1,1.6-1,3-2.6,3.1c-0.1,0-0.2,0-0.4,0h-26.5c-0.3,0-0.7,0-1-0.1c0.3,1.4,1.6,2.3,3,2.1h26.5
	c1.6,0.1,2.9-1.2,3-2.7c0-0.1,0-0.2,0-0.4v-4.1c0.1-1.4-0.8-2.6-2.1-3C188.9,188.7,189,189,189,189.4z M321.9,252.4
	c0,0.1-0.1,0.1-0.1,0.2c0.4,0.6,0.8,1.2,1.2,1.9c-1.7,3.9-4.7,7.7-9.1,11.5c-2.3,1.9-4.9,3.4-7.7,4.4c-2.9,1.1-6.1,1.7-9.2,1.7
	c-4,0.2-7.9-1.1-11-3.5c0.2,0.3,0.4,0.5,0.7,0.8c3,3.2,7.1,4.8,12.3,4.8c3.2,0,6.3-0.6,9.2-1.7c2.8-1,5.4-2.5,7.7-4.4
	c4.3-3.7,7.4-7.6,9.1-11.5C324.1,254.9,323.1,253.6,321.9,252.4L321.9,252.4z M284.6,267.3c-0.4-0.5-0.9-1-1.2-1.5
	c-2.7,4.1-6.4,6.1-11,6.1c-1.9,0.1-3.9-0.4-5.5-1.5l0.4,0.5c1.5,2,3.9,3,7.2,3c4.4,0.1,8.6-2.2,10.9-6
	C285,267.7,284.8,267.5,284.6,267.3z M351.5,214.2c-0.1-0.1-0.2-0.2-0.3-0.2c1.9,2.3,2.9,5.3,2.8,8.3v0.4c-0.3,6.7-3.4,12.3-9.6,17
	c-1,0.8-2.4,1.8-4.3,3.1c-1.9,1.3-3.3,2.3-4.3,3c-1.1,0.8-2,1.8-2.9,2.8c-1.1,1.3-1.7,2.9-1.7,4.5c0,0.3,0.1,0.6,0.2,0.9H325
	c0.1,0.7,0.4,1.4,0.9,2h7.5c-0.1-0.3-0.2-0.6-0.2-0.9c0-1.7,0.6-3.2,1.7-4.5c0.8-1.1,1.8-2,2.9-2.8c1-0.7,2.4-1.7,4.3-3
	c1.9-1.3,3.3-2.3,4.3-3.1c6.1-4.7,9.3-10.3,9.6-17v-0.4C356.1,220.4,354.5,216.7,351.5,214.2z M147.3,167.9c0,20.6-7,29.3-22.3,29.3
	c-6.1,0-10.9-1.4-14.5-4.3c3.6,4.3,9.1,6.3,16.5,6.3c15.3,0,22.3-8.7,22.3-29.3c0-12.5-2.6-20.9-8-25.5
	C145.4,149.3,147.3,157,147.3,167.9L147.3,167.9z M125,148.7c-7.2,0-10.3,5.8-10.3,19.3c0,9.3,1.6,14.8,5,17.2
	c-2.1-2.9-3-7.9-3-15.2c0-13.4,3.1-19.3,10.3-19.3c1.8-0.1,3.6,0.4,5.1,1.4C130.5,149.8,127.8,148.5,125,148.7z M168.3,141.8v44.5h2
	v-42.5c0.1-1.4-0.8-2.7-2.1-3C168.2,141.1,168.3,141.5,168.3,141.8L168.3,141.8z M101.8,222.2c-3.4-2.1-7.3-3.2-11.3-3.1
	c-5.2,0-9.4,1.4-12.4,4.3c-1.7,1.5-2.7,3.6-2.6,5.8c0,1.2,0.4,2.4,1.1,3.4c0.4,0.6,0.9,1,1.6,1.3c-0.4-0.8-0.7-1.7-0.7-2.7
	c0-2.2,1-4.4,2.6-5.8c3.1-2.9,7.2-4.3,12.4-4.3c4,0,7.9,1,11.3,3.1c0.9,0.5,1.8,1.2,2.6,1.9C105,224.6,103.5,223.3,101.8,222.2
	L101.8,222.2z M139.1,264.8L139.1,264.8c-1.3-2.3-1.9-4.9-1.8-7.5c0-3.7,1-7.4,2.8-10.6c1.7-2.8,3.7-4.2,6.2-4.2
	c1.1,0,2.2,0.3,3.2,0.8c-1.1-1.8-3.1-2.9-5.2-2.8c-2.5,0-4.5,1.4-6.2,4.2c-1.8,3.3-2.7,6.9-2.7,10.6c-0.1,2.6,0.5,5.2,1.8,7.5
	C137.6,263.5,138.3,264.2,139.1,264.8L139.1,264.8z M72.9,262c0,1.7,0.7,2.6,2.1,2.8c0-0.3-0.1-0.5-0.1-0.8c0-2.1,1.6-4.3,4.8-6.5
	l0.5-3.6C75.3,256.7,72.9,259.4,72.9,262z M92.2,258.6l4.9-33.3c-0.7-0.2-1.5-0.3-2.2-0.3l-4.6,31.6c-0.4,2.5-1,5-2,7.4
	c0.8,0.2,1.7,0.4,2.6,0.5C91.4,262.6,91.9,260.6,92.2,258.6L92.2,258.6z M68,185.1c-2.1-2.9-3-7.9-3-15.2c0-13.4,3.1-19.3,10.3-19.3
	c1.8-0.1,3.6,0.4,5.1,1.4c-1.6-2.3-4.3-3.6-7.1-3.4c-7.2,0-10.3,5.8-10.3,19.3C62.9,177.2,64.5,182.7,68,185.1z M81.6,241.5l0.8-5.1
	c-0.8-0.1-1.5-0.2-2.2-0.5l-0.5,3.6c-2.6,0-5.2-0.8-7.3-2.2c0.3,0.4,0.6,0.7,0.9,1.1C74.9,240.3,77.7,241.3,81.6,241.5L81.6,241.5z
	 M18.7,185.3c-2.1-3.1-2.6-8.2-2.6-15.3c0-11.2,1.4-19.3,9.7-19.3c1.8-0.1,3.6,0.4,5.1,1.4c-1.6-2.3-4.3-3.6-7.1-3.4
	c-8.3,0-9.7,8.1-9.7,19.3C14.1,176.9,14.8,182.8,18.7,185.3L18.7,185.3z"/>
<path id="middle" class="st1" d="M152.3,294.3c39.1-2.8,78.9-8.1,118,0.1l-1.6,3.2c-39.1-7.9-78.8-2.4-117.9,0.3L152.3,294.3z
	 M113.3,218.9c-6.1-4.6-13.5-7.1-21.2-6.9c-5.9-0.1-11.7,1.5-16.6,4.8c-4.6,2.7-7.4,7.7-7.2,13.1c0,2.5,1,4.9,2.8,6.6
	c1.8,1.9,4.6,2.9,8.4,3.1l0.8-5.1c-1.5,0-2.9-0.7-3.8-1.8c-0.7-1-1.1-2.2-1.1-3.4c0-2.2,1-4.4,2.6-5.8c3.1-2.9,7.2-4.3,12.4-4.3
	c4,0,7.9,1,11.3,3.1c6.2,3.7,9.3,9.9,9.3,18.5c0,6.7-1.7,12.4-5.1,17.2c-3.3,4.5-7.9,6.8-13.8,6.8c-1.3-0.1-2.6-0.3-3.9-0.6
	c1-2.4,1.6-4.9,2-7.4l4.9-33.3c-1.2-0.3-2.5-0.4-3.7-0.4c-2.6-0.1-5.2,0.6-7.4,2c-0.1,0.7-0.3,2.2-0.6,4.5c-0.3,2.3-0.7,5.3-1.2,9
	c-0.5,3.7-0.9,6.7-1.1,8.9c-9.3,4.3-13.9,9.5-13.9,15.7c-0.1,2.4,0.8,4.7,2.5,6.4c1.9,1.8,4.4,2.7,7,2.5c2.6,0.1,5.2-0.7,7.3-2.2
	c1.5,0.9,3.1,1.5,4.8,1.9c1.9,0.5,3.8,0.7,5.7,0.7c7.8,0.2,15.2-3,20.4-8.8c5.2-5.8,7.8-13.3,7.8-22.5c0.1-4.4-0.8-8.8-2.5-12.8
	C118.9,224.5,116.5,221.3,113.3,218.9L113.3,218.9z M79.5,258.8c-0.1,1.6-0.7,3.2-1.7,4.6c-0.5,0.8-1.4,1.3-2.3,1.4
	c-1.8,0-2.6-0.9-2.6-2.8c0-2.6,2.4-5.3,7.3-8L79.5,258.8z M145.6,234.1c-6.2,0-11.4,2-15.4,5.9c-4,3.9-6,9.1-6,15.6
	c-0.1,4.4,1.7,8.7,4.9,11.8c3.2,3.2,7.6,4.8,13.2,4.8c5.4,0.1,10.6-2.1,14.2-6.1c3.9-4,5.9-9.4,5.9-16.1c0.1-4.3-1.7-8.3-4.8-11.2
	C154.4,235.6,150.1,233.9,145.6,234.1L145.6,234.1z M148.8,261.5c-1.7,2.8-3.8,4.1-6.3,4.1c-2.3,0.1-4.4-1-5.6-3
	c-1.3-2.3-1.9-4.9-1.8-7.5c0-3.7,1-7.3,2.8-10.6c1.7-2.8,3.7-4.2,6.2-4.2c2.3-0.1,4.5,1.2,5.5,3.3c1.3,2.6,1.9,5.5,1.8,8.4
	C151.5,255.4,150.6,258.7,148.8,261.5L148.8,261.5z M323,254.4c-1.7,3.9-4.7,7.7-9.1,11.5c-2.3,1.9-4.9,3.4-7.7,4.4
	c-2.9,1.1-6.1,1.7-9.2,1.7c-5.2,0-9.3-1.6-12.3-4.8c-0.4-0.5-0.9-1-1.2-1.5c-2.7,4.1-6.4,6.1-11,6.1c-3.2,0-5.6-1-7.2-3
	c-1.5-1.7-2.3-4-2.3-6.2l1.9-17.2c0-1.3-0.3-2.5-1.1-3.5c-0.9-1-2.2-1.5-3.5-1.4c-1.6,0-3.1,0.7-4.1,1.9c-1.2,1.4-2,3.2-2.4,5
	c-0.4,3-0.9,7.3-1.6,13c-0.7,5.7-1.2,9.4-1.4,11.1h-10.3l0.9-7.7l-1,1c-2.3,2.1-5,3.8-7.9,5c-3.2,1.4-6.7,2.2-10.3,2.2
	c-4.4,0.1-8.6-1.6-11.7-4.8c-0.7-0.7-1.4-1.5-1.9-2.3c-0.8,1.5-1.9,2.8-3.2,3.9c-2.2,1.9-5.1,3-8,3.1c-4.5,0-7.6-1.7-9.1-5.2
	c-2.5,3.4-6.6,5.4-10.9,5.3c-3.7,0-6.6-0.9-8.6-2.8c-2-1.9-3.1-4.6-3-7.3c0.1-1.3,0.2-2.6,0.4-3.8c1.2-9.7,2.1-17.4,2.7-23.1
	c1.4-0.5,2.9-0.8,4.4-0.9c1,0,2,0,3,0.2c0.8,0.2,1.4,0.6,1.9,1.2c0.7,0.8,1,1.8,0.9,2.9l-2.6,19.9c-0.1,0.6-0.2,1.1-0.2,1.7
	c0,3.1,1.4,4.6,4.2,4.6c2.6,0,4.7-1.3,6.4-3.8c0-0.6,0-1.5,0.2-2.7l2.6-20.7c0.5-1,1.3-1.8,2.3-2.2c1.4-0.6,2.9-1,4.5-0.9
	c1.4-0.1,2.8,0.2,4,0.8c-2.1,16.9-3.2,25.8-3.2,26.9c0,2.1,0.7,3.1,2.3,3.1c1.3,0,2.8-0.9,4.4-2.8c0.8-0.9,1.4-2,1.9-3
	c-0.3-1.4-0.4-2.8-0.4-4.2c0-6.2,2.1-11.2,6.2-15c3.7-3.7,8.7-5.7,13.9-5.8c4,0,7.2,0.8,9.5,2.5c2.2,1.4,3.5,3.9,3.5,6.5
	c0,1.7-0.6,3.4-1.9,4.6c-2.2,2.2-5.2,3.5-8.3,3.4c0.7-1.9,1.1-4,1.2-6c0-3.4-1.5-5.1-4.5-5.1c-2.2,0-4.2,1.3-6,3.8
	c-1.9,2.9-2.9,6.2-2.8,9.7c0,3.7,0.8,6.5,2.4,8.5c1.6,2,4.1,3.1,6.7,3c3.4,0,7-1.4,10.9-4.2c2.2-1.6,4.2-3.5,5.9-5.6
	c2.6-22.3,4.2-36.5,4.9-42.4c1.4-0.5,2.9-0.7,4.4-0.6c4,0,6.1,1.2,6.1,3.6v0.5c-0.9,8.2-1.8,15.3-2.8,21.5c2.5-2.4,5.9-3.7,9.3-3.7
	c3.5,0,6.2,0.9,8.2,2.7c2,1.7,3.1,4.1,3,6.7c-0.1,1.4-0.2,2.7-0.5,4c-1.2,7.8-1.8,12.4-1.8,13.7c0,2.5,0.8,3.7,2.4,3.7
	c1.3,0,2.8-0.9,4.3-2.7c0.4-0.4,0.7-0.9,1-1.4c-0.7-2.2-1-4.4-1-6.7c0-5.3,2.2-10.4,6-14c3.8-3.9,9-6.1,14.4-6
	c3.4-0.2,6.8,0.8,9.7,2.6c2.4,1.6,3.8,4.2,3.8,7.1c0.1,3.8-1.7,7.5-4.8,9.7c-3.2,2.5-7.6,4.2-13.1,5.2l-1.1-4.6
	c2.8-0.4,5.3-1.8,7.2-3.9c1.4-1.5,2.3-3.5,2.4-5.6c0-1.8-0.5-3-1.4-3.7c-0.9-0.6-2-1-3.1-1c-2.4,0-4.6,1.4-6.4,4.1
	c-1.9,2.9-2.9,6.3-2.8,9.7c0,3.8,0.9,6.6,2.7,8.4c1.7,1.8,4.1,2.8,6.6,2.8c4.1-0.1,8-1.5,11.2-4.1c3.7-2.8,6.7-6.5,8.7-10.6
	C321,251.6,322.1,253,323,254.4z M331.3,263.2c1.2,1.2,1.9,2.9,1.9,4.6c0,1.7-0.6,3.3-1.9,4.5c-2.5,2.4-6.5,2.4-9,0
	c-1.2-1.2-1.9-2.8-1.9-4.5c0-1.7,0.7-3.4,1.9-4.6c2.4-2.5,6.4-2.5,8.9-0.1C331.2,263.1,331.3,263.2,331.3,263.2z M354,222.2v0.4
	c-0.3,6.7-3.4,12.3-9.6,17c-1,0.8-2.4,1.8-4.3,3.1c-1.9,1.3-3.3,2.3-4.3,3c-1.1,0.8-2.1,1.8-2.9,2.8c-1.1,1.3-1.7,2.9-1.7,4.5
	c0,0.3,0.1,0.6,0.2,0.9h-7.5c-0.6-0.7-0.9-1.6-1-2.5c-0.2-0.8-0.3-1.6-0.3-2.4c0-2.4,0.8-4.8,2.3-6.7c1.5-1.9,3.2-3.6,5.1-5
	c1.9-1.3,3.8-2.7,5.6-4.1c1.9-1.4,3.5-3.1,4.8-5c1.3-1.9,2-4.1,2.1-6.3c0.1-1.8-0.5-3.7-1.7-5.1c-1.4-1.4-3.3-2.1-5.2-1.9
	c-2.2-0.1-4.3,0.9-5.7,2.6c-1.5,1.7-2.3,4-2.3,6.3c-0.1,2,0.4,4,1.5,5.7h-7.5c-0.9-2.1-1.4-4.3-1.4-6.5c0.1-4.1,2-7.9,5.3-10.4
	c3.5-2.8,7.8-4.3,12.3-4.2c4.9,0,8.8,1.3,11.7,3.9C352.5,214.7,354.1,218.4,354,222.2L354,222.2z M41.3,175.9c1.9,0.3,3,1.1,2.7,3.6
	c-0.7,9.7-5.3,17.7-20.3,17.7C7.2,197.2,2,187.3,2,168c0-18.2,5.1-30,21.7-30c16.2,0,19.7,9.5,20.4,18.1c0.2,2.5-0.8,3.2-2.7,3.5
	l-5,0.9c-2.4,0.4-3.3,0-3.4-1.4c-0.3-5.4-2.8-10.5-9.3-10.5c-8.3,0-9.7,8.1-9.7,19.3c0,12,1.4,18.6,9.7,18.6
	c6.5,0.1,8.8-4.1,9.3-9.4c0.2-1.8,1.4-2.4,3.4-2.1L41.3,175.9z M50.9,167.9c0-20.5,6.9-29.9,22.3-29.9s22.3,9.4,22.3,29.9
	s-7,29.3-22.3,29.3S50.9,188.5,50.9,167.9z M83.5,167.9c0-13.4-3.1-19.3-10.2-19.3c-7.1,0-10.3,5.8-10.3,19.3
	c0,13.1,3.1,18.6,10.3,18.6C80.4,186.6,83.5,181,83.5,167.9L83.5,167.9z M102.7,167.9c0-20.5,6.9-29.9,22.3-29.9s22.3,9.4,22.3,29.9
	s-7,29.3-22.3,29.3S102.7,188.5,102.7,167.9L102.7,167.9z M135.3,167.9c0-13.4-3.1-19.3-10.2-19.3s-10.3,5.8-10.3,19.3
	c0,13.1,3.1,18.6,10.3,18.6S135.3,181,135.3,167.9L135.3,167.9z M185.9,186.3c1.6-0.1,2.9,1.1,3,2.7c0,0.1,0,0.3,0,0.4v4.1
	c0.1,1.6-1,3-2.6,3.1c-0.1,0-0.2,0-0.4,0h-26.5c-1.6,0.1-3-1-3.1-2.6c0-0.2,0-0.4,0-0.5v-51.6c-0.2-1.5,0.9-2.9,2.5-3.1
	c0.2,0,0.4,0,0.6,0h5.7c1.6-0.2,3,1,3.1,2.6c0,0.2,0,0.4,0,0.5v44.5L185.9,186.3z M233.3,174.8c-1.6,0.2-3-1-3.1-2.6
	c0-0.2,0-0.4,0-0.5v-1.8c-0.2-1.6,1-3,2.6-3.1c0.2,0,0.4,0,0.5,0h15.3c1.6-0.1,3,1.1,3.1,2.8c0,0.1,0,0.2,0,0.4v6.7
	c0,10.6-3.7,20.6-20.5,20.6c-16.5,0-21.7-9.9-21.7-29.3c0-18.1,5.1-29.9,21.7-29.9c15.1,0,19.7,8.2,20.4,18.1
	c0.2,2.2-0.2,3.3-2.6,3.7l-5,0.8c-2.3,0.4-3.3-0.2-3.4-1.7c-0.5-5.4-2.9-10.2-9.3-10.2c-8.3,0-9.7,8.1-9.7,19.3
	c0,12,1.4,18.6,9.7,18.6c7.3,0,9.4-3.8,9.4-9.6v-2.2H233.3z M272.4,175c0,6.8,2.8,11.6,9.2,11.6c6.4,0,9.3-4.7,9.3-11.6v-33.2
	c-0.1-1.6,1.1-3,2.7-3.1c0.2,0,0.3,0,0.5,0h5.8c1.6-0.1,3,1.1,3.1,2.7c0,0.2,0,0.3,0,0.5v34.3c0,12.8-5.5,21.1-21.3,21.1
	s-21.1-8.3-21.1-21.1v-34.3c-0.2-1.6,1-3,2.5-3.1c0.2,0,0.3,0,0.5,0h5.8c1.6-0.1,3,1.1,3.1,2.7c0,0.2,0,0.3,0,0.5L272.4,175z
	 M338.1,193.5c0.1,1.6-1.1,3-2.6,3.1c-0.2,0-0.3,0-0.5,0h-5.8c-1.6,0.1-2.9-1.2-3-2.7c0-0.1,0-0.2,0-0.4v-18.3l-15.4-33.7
	c-0.5-0.9-0.2-2,0.6-2.6c0.4-0.2,0.8-0.3,1.2-0.2h6.9c1.9-0.1,3.6,1,4.2,2.8l8.9,21.1l9.1-21.1c0.6-1.7,2.3-2.9,4.2-2.8h6.1
	c1-0.1,1.9,0.6,2,1.7c0,0.4,0,0.7-0.2,1.1L338.1,175V193.5z M255.1,13.4c-0.6-3.7-2-7.5-6.9-8.4c-4.2-0.8-8.2-2.2-12-4.2l-4.6-0.8
	c-0.5,0.2-0.9,0.3-1.4,0.3c-4.7-0.3-9.4,0.8-13.6,3c-4,2-8,4-12,6.2c-2.4,1.4-4.3,3.7-5.2,6.4c-3,7.5-3.3,15.3-3.1,23.2
	c0,1.4-0.1,1.9-1.6,1.6c-1.4-0.3-2.7,0.6-3.1,1.9c-0.8,1.9-1.5,3.7-2.2,5.6c-1.4,3.6-0.7,9.2,0.6,12.7c0.4,1.3,1,2.6,1.7,3.8
	c0.5,1.7,1.3,3.5,3.8,2.8c0.2,0,0.8,0.7,0.8,1s0,0.7-0.1,1.1c-0.4,0.4-0.8,0.7-1.3,1.1c-5.4,4.3-13.4,1.9-18.3-2
	c-0.6-0.5-1.5,0.5-0.9,1c4.9,4.1,11.1,6.3,17.5,6.1c1.2-0.1,2.4-0.2,3.6-0.5c0.8,3,2.1,5.9,3.6,8.5c2.5,4.5,5.7,8.4,9.6,11.7
	c1.8,1.5,4,2.5,6.2,3.1c3.1,0.9,6.4,1.5,9.6,0.8c4.3-1,7.1-3.9,10.6-6.2c1.4-0.9,2.8-1.9,4.1-3c1.8-1.7,3.5-3.7,4.8-5.8l0.5-0.8
	c1,0.6,2.1,1.2,3.2,1.7c6,2.3,12.5,2.3,18.5,0.1c0.7-0.3,0.3-1.5-0.5-1.3c-6,2-14.3,1.5-17.9-4.3c-0.3-0.5-0.6-0.9-0.8-1.4
	c0.1-0.4,0.2-0.7,0.3-1.1c0.1-0.4,1-0.8,1.1-0.7c2.1,1.5,3.5,0.1,4.6-1.3c1.1-0.9,2-1.9,2.9-3c2.5-2.9,5.1-7.9,5-11.8
	c0-2-0.1-4-0.1-6c0.1-1.4-0.9-2.6-2.2-2.8c-1.3-0.2-1.4-0.6-1.2-1.5l0,0c2.2-4,3-8.6,5-12.7c0.6-1.3,0.8-2.6,0.6-4
	c-0.2-3-0.6-6.1-1.2-9.1c-0.7-2.3-1.7-4.5-2.9-6.5c-0.6-1-1.9-1.6-3-2.2L255.1,13.4z M134.7,5.8c-1.8-3.3-4.4-6.4-9.3-5.6
	c-4.1,0.7-8.4,0.7-12.5,0.1l-4.5,0.8c-0.4,0.3-0.7,0.6-1.2,0.8c-4.5,1.3-8.5,3.9-11.6,7.4c-3,3.3-6.1,6.6-9,9.9
	c-1.8,2.2-2.7,5-2.6,7.8c-0.2,7.1,1.6,13.7,4,20.2l-2.5,0.5c-1.3,0.3-1.4,0.7-1.1,2.1c0.5,1.7,1,3.3,1.4,5c0,0,0,0.1,0,0.1
	c-0.1,2-0.1,4-0.1,6.1c-0.1,3.9,2.5,9,4.9,11.9c0.9,1.1,1.8,2.1,2.9,3c1.1,1.4,2.4,2.9,4.5,1.3c0.1-0.1,1,0.4,1.1,0.7
	c1.3,5.6,5,9.6,9.1,13.2c3.8,3.4,8.2,6,12.9,7.9c2.2,0.8,4.5,1.1,6.8,1c3.1-0.2,6.5-0.7,9.1-2.5c3.6-2.4,5.2-6.1,7.7-9.4
	c1-1.3,1.9-2.7,2.7-4.2c1.1-2.3,1.9-4.7,2.5-7.1c0.3-0.9,0.5-1.8,0.6-2.8l0,0l0,0c0.3-1.7,0.3-3.4,0.1-5.1c0-0.3,0.6-1.1,0.8-1
	c2.5,0.7,3.2-1.1,3.8-2.8c0.7-1.2,1.2-2.5,1.7-3.8c1.4-3.6,2-9.3,0.6-12.9c-0.7-1.9-1.4-3.8-2.2-5.6v-0.1v-0.4
	c-0.1-1.8-0.2-3.6-0.4-5.4c-0.1-1-0.4-1.2-1.4-1.1l-2.5,0.3c0-3.3-0.3-6.7,0-10.1c0.1-1.4-0.2-2.8-0.8-4c-1.2-2.9-2.7-5.6-4.3-8.3
	c-1.4-2-3.1-3.7-4.9-5.2L134.7,5.8z"/>
<path id="top" class="st0" d="M45.9,245.4l-0.2,0.2c-2,2.4-4,4.4-5.3,4.4c-0.6,0-1-0.4-0.3-1.6l2.8-5.1c0.9-1.2,0.7-3-0.4-4l-1.6-2
	c-0.4-0.5-0.4-1.2,0.1-1.7c0,0,0,0,0,0l-1.5-1.6c-1.6,1.5-1.7,3.2-0.7,4.5l0.2,0.3c-1.2,1.8-2.9,4.3-4.8,6.6l0,0l-0.2,0.2
	c-1.1,1.3-2.6,2.1-4.3,2.2l2.7-4.8c1.7-3.1,0.1-6-2.5-6c-2.2,0-3.9,0.9-5.5,3.8l-1.4,2.5l-1.2,2.2c-3.6,6.3,3.3,8.7,7.1,3.7h0.6
	c2.2-0.1,4.3-1.2,5.8-2.8l0,0c1.4-1.6,2.4-3.1,4.7-6.3l0.4,0.5c0.4,0.5,0.5,1.1,0.2,1.7l-3,5.4c-1.2,2.2-0.4,4.2,1.9,4.2
	c2.3,0,5-2.6,7.4-5.4C46.8,246,46.4,245.7,45.9,245.4z M28.4,245.6h-0.1c-0.9,0-1.7,0.8-1.7,1.7c0,0,0,0,0,0c0,0.4,0.1,0.7,0.3,1v0
	c-1.3,2.4-4.6,1.9-2.9-1.1l2.1-3.9l1.4-2.4c2-3.5,4.7-2.1,3,0.9L28.4,245.6z M150.3,292.3c39.1-2.8,78.9-8.1,118,0.1l-1.6,3.2
	c-39.1-7.9-78.8-2.4-117.9,0.3L150.3,292.3z M111.3,216.9c-6.1-4.6-13.5-7.1-21.2-6.9c-5.9-0.1-11.7,1.5-16.6,4.8
	c-4.6,2.7-7.4,7.7-7.2,13.1c0,2.5,1,4.9,2.8,6.6c1.8,1.9,4.6,2.9,8.4,3.1l0.8-5.1c-1.5,0-2.9-0.7-3.8-1.8c-0.7-1-1.1-2.2-1.1-3.4
	c0-2.2,1-4.4,2.6-5.8c3.1-2.9,7.2-4.3,12.4-4.3c4,0,7.9,1,11.3,3.1c6.2,3.7,9.3,9.9,9.3,18.5c0,6.7-1.7,12.4-5.1,17.2
	c-3.3,4.5-7.9,6.8-13.8,6.8c-1.3-0.1-2.6-0.3-3.9-0.6c1-2.4,1.6-4.9,2-7.4l4.9-33.3c-1.2-0.3-2.5-0.4-3.7-0.4
	c-2.6-0.1-5.2,0.6-7.4,2c-0.1,0.7-0.3,2.2-0.6,4.5s-0.7,5.3-1.2,9s-0.9,6.7-1.1,8.9c-9.3,4.3-13.9,9.5-13.9,15.7
	c-0.1,2.4,0.8,4.7,2.5,6.4c1.9,1.8,4.4,2.7,7,2.5c2.6,0.1,5.2-0.7,7.3-2.2c1.5,0.9,3.1,1.5,4.8,1.9c1.9,0.5,3.8,0.7,5.7,0.7
	c7.8,0.2,15.2-3,20.4-8.8c5.2-5.8,7.8-13.3,7.8-22.5c0.1-4.4-0.8-8.8-2.5-12.8C116.9,222.5,114.5,219.3,111.3,216.9L111.3,216.9z
	 M77.5,256.8c-0.1,1.6-0.7,3.2-1.7,4.6c-0.5,0.8-1.4,1.3-2.3,1.4c-1.8,0-2.6-0.9-2.6-2.8c0-2.6,2.4-5.3,7.3-8L77.5,256.8z
	 M143.6,232.1c-6.2,0-11.4,2-15.4,5.9c-4,3.9-6,9.1-6,15.6c-0.1,4.4,1.7,8.7,4.9,11.8c3.2,3.2,7.6,4.8,13.2,4.8
	c5.4,0.1,10.6-2.1,14.2-6.1c3.9-4,5.9-9.4,5.9-16.1c0.1-4.3-1.7-8.3-4.8-11.2C152.4,233.6,148.1,231.9,143.6,232.1L143.6,232.1z
	 M146.8,259.5c-1.7,2.8-3.8,4.1-6.3,4.1c-2.3,0.1-4.4-1-5.6-3c-1.3-2.3-1.9-4.9-1.8-7.5c0-3.7,1-7.3,2.8-10.6
	c1.7-2.8,3.7-4.2,6.2-4.2c2.3-0.1,4.5,1.2,5.5,3.3c1.3,2.6,1.9,5.5,1.8,8.4C149.5,253.4,148.6,256.7,146.8,259.5L146.8,259.5z
	 M321,252.4c-1.7,3.9-4.7,7.7-9.1,11.5c-2.3,1.9-4.9,3.4-7.7,4.4c-2.9,1.1-6.1,1.7-9.2,1.7c-5.2,0-9.3-1.6-12.3-4.8
	c-0.4-0.5-0.9-1-1.2-1.5c-2.7,4.1-6.4,6.1-11,6.1c-3.2,0-5.6-1-7.2-3c-1.5-1.7-2.3-4-2.3-6.2l1.9-17.2c0-1.3-0.3-2.5-1.1-3.5
	c-0.9-1-2.2-1.5-3.5-1.4c-1.6,0-3.1,0.7-4.1,1.9c-1.2,1.4-2,3.2-2.4,5c-0.4,3-0.9,7.3-1.6,13c-0.7,5.7-1.2,9.4-1.4,11.1h-10.3
	l0.9-7.7l-1,1c-2.3,2.1-5,3.8-7.9,5c-3.2,1.4-6.7,2.2-10.3,2.2c-4.4,0.1-8.6-1.6-11.7-4.8c-0.7-0.7-1.4-1.5-1.9-2.3
	c-0.8,1.5-1.9,2.8-3.2,3.9c-2.2,1.9-5.1,3-8,3.1c-4.5,0-7.6-1.7-9.1-5.2c-2.5,3.4-6.6,5.4-10.9,5.3c-3.7,0-6.6-0.9-8.6-2.8
	c-2-1.9-3.1-4.6-3-7.3c0.1-1.3,0.2-2.6,0.4-3.8c1.2-9.7,2.1-17.4,2.7-23.1c1.4-0.5,2.9-0.8,4.4-0.9c1,0,2,0,3,0.2
	c0.8,0.2,1.4,0.6,1.9,1.2c0.7,0.8,1,1.8,0.9,2.9l-2.6,19.9c-0.1,0.6-0.2,1.1-0.2,1.7c0,3.1,1.4,4.6,4.2,4.6c2.6,0,4.7-1.3,6.4-3.8
	c0-0.6,0-1.5,0.2-2.7l2.6-20.7c0.5-1,1.3-1.8,2.3-2.2c1.4-0.6,2.9-1,4.5-0.9c1.4-0.1,2.8,0.2,4,0.8c-2.1,16.9-3.2,25.8-3.2,26.9
	c0,2.1,0.7,3.1,2.3,3.1c1.3,0,2.8-0.9,4.4-2.8c0.8-0.9,1.4-2,1.9-3c-0.3-1.4-0.4-2.8-0.4-4.2c0-6.2,2.1-11.2,6.2-15
	c3.7-3.7,8.7-5.7,13.9-5.8c4,0,7.2,0.8,9.5,2.5c2.2,1.4,3.5,3.9,3.5,6.5c0,1.7-0.6,3.4-1.9,4.6c-2.2,2.2-5.2,3.5-8.3,3.4
	c0.7-1.9,1.1-4,1.2-6c0-3.4-1.5-5.1-4.5-5.1c-2.2,0-4.2,1.3-6,3.8c-1.9,2.9-2.9,6.2-2.8,9.7c0,3.7,0.8,6.5,2.4,8.5
	c1.6,2,4.1,3.1,6.7,3c3.4,0,7-1.4,10.9-4.2c2.2-1.6,4.2-3.5,5.9-5.6c2.6-22.3,4.2-36.5,4.9-42.4c1.4-0.5,2.9-0.7,4.4-0.6
	c4,0,6.1,1.2,6.1,3.6v0.5c-0.9,8.2-1.8,15.3-2.8,21.5c2.5-2.4,5.9-3.7,9.3-3.7c3.5,0,6.2,0.9,8.2,2.7c2,1.7,3.1,4.1,3,6.7
	c-0.1,1.4-0.2,2.7-0.5,4c-1.2,7.8-1.8,12.4-1.8,13.7c0,2.5,0.8,3.7,2.4,3.7c1.3,0,2.8-0.9,4.3-2.7c0.4-0.4,0.7-0.9,1-1.4
	c-0.7-2.2-1-4.4-1-6.7c0-5.3,2.2-10.4,6-14c3.8-3.9,9-6.1,14.4-6c3.4-0.2,6.8,0.8,9.7,2.6c2.4,1.6,3.8,4.2,3.8,7.1
	c0.1,3.8-1.7,7.5-4.8,9.7c-3.2,2.5-7.6,4.2-13.1,5.2l-1.1-4.6c2.8-0.4,5.3-1.8,7.2-3.9c1.4-1.5,2.3-3.5,2.4-5.6c0-1.8-0.5-3-1.4-3.7
	c-0.9-0.6-2-1-3.1-1c-2.4,0-4.6,1.4-6.4,4.1c-1.9,2.9-2.9,6.3-2.8,9.7c0,3.8,0.9,6.6,2.7,8.4c1.7,1.8,4.1,2.8,6.6,2.8
	c4.1-0.1,8-1.5,11.2-4.1c3.7-2.8,6.7-6.5,8.7-10.6C319,249.6,320.1,251,321,252.4z M329.3,261.2c1.2,1.2,1.9,2.9,1.9,4.6
	c0,1.7-0.6,3.3-1.9,4.5c-2.5,2.4-6.5,2.4-9,0c-1.2-1.2-1.9-2.8-1.9-4.5c0-1.7,0.7-3.4,1.9-4.6c2.4-2.5,6.4-2.5,8.9-0.1
	C329.2,261.1,329.3,261.2,329.3,261.2z M352,220.2v0.4c-0.3,6.7-3.4,12.3-9.6,17c-1,0.8-2.4,1.8-4.3,3.1c-1.9,1.3-3.3,2.3-4.3,3
	c-1.1,0.8-2.1,1.8-2.9,2.8c-1.1,1.3-1.7,2.9-1.7,4.5c0,0.3,0.1,0.6,0.2,0.9h-7.5c-0.6-0.7-0.9-1.6-1-2.5c-0.2-0.8-0.3-1.6-0.3-2.4
	c0-2.4,0.8-4.8,2.3-6.7c1.5-1.9,3.2-3.6,5.1-5c1.9-1.3,3.8-2.7,5.6-4.1c1.9-1.4,3.5-3.1,4.8-5c1.3-1.9,2-4.1,2.1-6.3
	c0.1-1.8-0.5-3.7-1.7-5.1c-1.4-1.4-3.3-2.1-5.2-1.9c-2.2-0.1-4.3,0.9-5.7,2.6c-1.5,1.7-2.3,4-2.3,6.3c-0.1,2,0.4,4,1.5,5.7h-7.5
	c-0.9-2.1-1.4-4.3-1.4-6.5c0.1-4.1,2-7.9,5.3-10.4c3.5-2.8,7.8-4.3,12.3-4.2c4.9,0,8.8,1.3,11.7,3.9
	C350.5,212.7,352.1,216.4,352,220.2L352,220.2z M39.3,173.9c1.9,0.3,3,1.1,2.7,3.6c-0.7,9.7-5.3,17.7-20.3,17.7
	C5.2,195.2,0,185.3,0,166c0-18.2,5.1-30,21.7-30c16.2,0,19.7,9.5,20.4,18.1c0.2,2.5-0.8,3.2-2.7,3.5l-5,0.9c-2.4,0.4-3.3,0-3.4-1.4
	c-0.3-5.4-2.8-10.5-9.3-10.5c-8.3,0-9.7,8.1-9.7,19.3c0,12,1.4,18.6,9.7,18.6c6.5,0.1,8.8-4.1,9.3-9.4c0.2-1.8,1.4-2.4,3.4-2.1
	L39.3,173.9z M48.9,166c0-20.5,6.9-29.9,22.3-29.9s22.3,9.4,22.3,29.9s-7,29.3-22.3,29.3S48.9,186.5,48.9,166z M81.5,166
	c0-13.4-3.1-19.3-10.2-19.3s-10.3,5.8-10.3,19.3c0,13.1,3.1,18.6,10.3,18.6S81.5,179,81.5,166L81.5,166z M100.7,166
	c0-20.5,6.9-29.9,22.3-29.9s22.3,9.4,22.3,29.9s-7,29.3-22.3,29.3S100.7,186.5,100.7,166L100.7,166z M133.3,166
	c0-13.4-3.1-19.3-10.2-19.3c-7.1,0-10.3,5.8-10.3,19.3c0,13.1,3.1,18.6,10.3,18.6S133.3,179,133.3,166L133.3,166z M183.9,184.3
	c1.6-0.1,2.9,1.1,3,2.7c0,0.1,0,0.3,0,0.4v4.1c0.1,1.6-1,3-2.6,3.1c-0.1,0-0.2,0-0.4,0h-26.5c-1.6,0.1-3-1-3.1-2.6
	c0-0.2,0-0.4,0-0.5v-51.6c-0.2-1.5,0.9-2.9,2.5-3.1c0.2,0,0.4,0,0.6,0h5.7c1.6-0.2,3,1,3.1,2.6c0,0.2,0,0.4,0,0.5v44.5L183.9,184.3z
	 M231.3,172.8c-1.6,0.2-3-1-3.1-2.6c0-0.2,0-0.4,0-0.5v-1.8c-0.2-1.6,1-3,2.6-3.1c0.2,0,0.4,0,0.5,0h15.3c1.6-0.1,3,1.1,3.1,2.8
	c0,0.1,0,0.2,0,0.4v6.7c0,10.6-3.7,20.6-20.5,20.6c-16.5,0-21.7-9.9-21.7-29.3c0-18.1,5.1-29.9,21.7-29.9c15.1,0,19.7,8.2,20.4,18.1
	c0.2,2.2-0.2,3.3-2.6,3.7l-5,0.8c-2.3,0.4-3.3-0.2-3.4-1.7c-0.5-5.4-2.9-10.2-9.3-10.2c-8.3,0-9.7,8.1-9.7,19.3
	c0,12,1.4,18.6,9.7,18.6c7.3,0,9.4-3.8,9.4-9.6v-2.2H231.3z M270.4,173c0,6.8,2.8,11.6,9.2,11.6c6.4,0,9.3-4.7,9.3-11.6v-33.2
	c-0.1-1.6,1.1-3,2.7-3.1c0.2,0,0.3,0,0.5,0h5.8c1.6-0.1,3,1.1,3.1,2.7c0,0.2,0,0.3,0,0.5v34.3c0,12.8-5.5,21.1-21.3,21.1
	s-21.1-8.3-21.1-21.1v-34.3c-0.2-1.6,1-3,2.5-3.1c0.2,0,0.3,0,0.5,0h5.8c1.6-0.1,3,1.1,3.1,2.7c0,0.2,0,0.3,0,0.5L270.4,173z
	 M336.1,191.5c0.1,1.6-1.1,3-2.6,3.1c-0.2,0-0.3,0-0.5,0h-5.8c-1.6,0.1-2.9-1.2-3-2.7c0-0.1,0-0.2,0-0.4v-18.3l-15.4-33.7
	c-0.5-0.9-0.2-2,0.6-2.6c0.4-0.2,0.8-0.3,1.2-0.2h6.9c1.9-0.1,3.6,1,4.2,2.8l8.9,21.1l9.1-21.1c0.6-1.7,2.3-2.9,4.2-2.8h6.1
	c1-0.1,1.9,0.6,2,1.7c0,0.4,0,0.7-0.2,1.1L336.1,173V191.5z M256.3,23.7c0.5-0.4,1.1-0.8,1.6-1.1c0.5-0.1,1-0.1,1.5-0.1
	c-0.3,0.5-0.5,0.9-0.8,1.4c-0.1,0.1-0.3,0.3-0.4,0.4L256.3,23.7z M259,25.5c-0.6-0.1-1.3-0.2-2-0.3l1.2-1c0.5-0.1,1.1-0.2,1.6-0.1
	c0.4,0.1,0.6,0.7,0.9,1c-0.4,0.2-0.7,0.3-1.1,0.5C259.5,25.6,259.2,25.6,259,25.5L259,25.5z M258.5,27.7c0.6-0.5,1.3-1,2-1.3
	c0.2-0.1,0.8,0.6,1.2,0.9l-0.1,0.7c-0.5,0.3-1.1,0.5-1.7,0.6C259.4,28.5,259,28,258.5,27.7z M261,28.9c0.3,0.6,0.7,1.3,0.6,1.5
	c-0.5,0.4-1,0.7-1.6,0.7c-0.3,0-0.7-0.3-1.1-0.5L261,28.9L261,28.9z M261.9,38.9c0,0-0.3,0.2-0.5,0c-0.2-0.2-0.5-0.5-0.5-0.7
	c0.1-0.5,0.2-1,0.4-1.5C262.8,36.9,261.9,38.1,261.9,38.9z M259.8,34.1c0.9,0.3,1.8-1.7,2.7-0.1c0.6,1.2,0.4,2.2-1.2,2.5l0,0
	c-0.8-0.6,0.2-2.6-1.8-2.1C259.6,34.4,259.7,34.1,259.8,34.1z M244.8,15c0.1,0.2,0.2,0.4,0.2,0.6c0.2,0.6,0.3,1.3,0.4,1.9
	c-0.4-0.5-0.8-1-1.3-1.4c-0.5-0.3-1-0.4-1.5-0.5c0.1,0.4,0.2,0.7,0.2,1.1c0,0.5,0,1-0.1,1.5l-0.9-1c-0.1-0.1-0.2-0.3-0.2-0.3
	c-2.3,0.2-2.8-2-4.2-2.9c-0.2-0.1-0.5-0.2-0.8-0.2c0,0.2,0,0.4,0,0.5c1,1.9-0.7,0.9-1.1,1c-0.7,0.2-1.3-1.7-2.1,0
	c-0.3,0-0.5-0.1-0.7-0.2c-0.5-0.4-0.9-1-1.3-1.4c-0.4-0.4-0.8-0.7-1.2-1.1c0.2,0.6,0.3,1.1,0.5,1.6c0.2,0.3,0.3,0.7,0.4,1
	c0,0.3,0,0.6-0.1,0.9l-0.6-0.5l-1.4-1.2c0.2,0.6,0.5,1.2,0.8,1.8c0.2,0.3,0.4,0.6,0.6,0.8c0.2,0.3,0.3,0.6,0.5,0.9
	c-0.3-0.2-0.6-0.4-0.9-0.6c-1-1.2-1.9-2.4-2.9-3.5c-0.2-0.2-0.5-0.5-0.7-0.7c-0.1,0.3-0.2,0.6-0.3,0.9c-0.1,0.8-0.1,1.7-0.1,2.5
	c-0.5-0.8-1-1.4-1.7-2.1c-1.3-1.1-2.8-1.9-4.2-2.9c-0.2-0.2-0.4-0.4-0.5-0.6c0.2-0.1,0.5-0.1,0.7-0.1l3.2-0.2v0.5l12,0.5
	c0.7-0.1,1.4,0,2.1,0.2c1.3,0.8,2.4,1.4,4.1,0.7C242.8,12.1,244.5,13.8,244.8,15z M233.4,2.4c0.7,0.8,1.9,1.2,2.9,0.9
	c1.6-0.4,5.1,4,4.9,5.6c0,0.2-0.1,0.4-0.1,0.6c-0.2-0.1-0.3-0.3-0.4-0.4c-0.5-0.9-1-1.8-1.6-2.7c-0.2-0.3-0.7-0.4-1-0.6
	c0.1,0.3,0.2,0.6,0.3,0.9c0.1,0.3,0.4,0.6,0.5,0.9c0,0.1,0,0.2,0,0.3c-0.1,0-0.2-0.1-0.4-0.1c-2.8-1.1-2.8-1.1-5.1-4
	c-0.1-0.1-0.2-0.2-0.3-0.2c0-0.4-0.1-0.8-0.1-1c0-0.2-0.1-0.3-0.1-0.5C233,2.3,233.2,2.3,233.4,2.4z M231.3,3.4
	c0.6,0,1.2,0.1,1.8,0.3c0.6,1.3,1.3,2.5,1.9,3.8c0.1,0.3,0.1,0.7,0.1,1c-0.2-0.1-0.4-0.4-0.7-0.4c-2.2-0.3-3-2.1-4-3.6
	C230.3,4.3,230.9,3.5,231.3,3.4z M226,6.4c-0.3-0.3-0.4-0.7-0.4-1.1c0.6-0.5,1.4-1.1,2-1c2.4,0.7,3.8,2.7,5,4.7c0.1,0.1,0,0.3,0,0.5
	c-0.2-0.1-0.4-0.2-0.5-0.3c-0.6-0.6-1.2-1.2-1.8-1.7c-0.1-0.1-0.7,0-0.7,0.1c-0.1,0.7-0.1,0.7-0.6,0.6C227.3,8.5,226.8,7.2,226,6.4
	L226,6.4z M220.1,7.8c-0.1-0.2-0.1-0.5,0-0.7c0.4-0.2,0.8-0.3,1.3-0.4c0,0.1,0.1,0.3,0.1,0.4c0.7,0,1.5-0.1,2.2-0.1
	c0.6-0.1,1.2,0,1.7,0.3c0.5,0.5,0.9,1.1,1.3,1.7c-0.4-0.2-0.9-0.3-1.3-0.3c-1.2,0-2.5,0.2-3.7,0.1C221.1,8.6,220.6,8.3,220.1,7.8
	L220.1,7.8z M215,11.8c1.2,0.8,1.5-1.1,2.9-0.9c1.1,0.8,2.5,1.9,3.9,2.9c0.1,0-0.1,0.5-0.1,0.5c-2.4,0.2-4.7-0.5-6.6-2
	C215,12.3,215,12,215,11.8L215,11.8z M212.9,12.2c0.1-0.1,0.2-0.2,0.3-0.3c1.7,1.4,3.4,2.9,5,4.3c0.2,0.2,0.1,0.6,0.1,0.9
	c-0.2-0.1-0.4-0.3-0.6-0.5c-0.7-0.7-1.1-0.8-1,0.4c0,0.1-0.3,0.4-0.4,0.4c-1.2-0.4-2.3-0.9-3.4-1.5c-0.5-0.3-0.7-1.1-1.1-1.7
	c0.5-0.1,1-0.2,1.6-0.2c0.3,0,0.6,0,0.9,0c-0.2-0.2-0.5-0.4-0.8-0.6c-0.3-0.2-0.6-0.3-0.9-0.4c-0.5-0.2-1.1-0.3-1.6-0.5L212.9,12.2z
	 M205.5,24.1c-0.5,1.1-1.1,2.1-1.6,3.2c-0.1,0.2-0.5,0.4-0.7,0.6c0-0.3-0.1-0.6,0-0.9c0.6-1.1,1.3-2.2,2-3.3
	c0.1-0.1,0.3-0.2,0.5-0.3c0,0.1,0.1,0.2,0.1,0.4L205.5,24.1z M203.8,14.5c-0.1,0-0.1-0.4,0.1-0.5c0.5-0.3,1-0.6,1.6-0.7
	c0.5,0,1.1,0.2,1.6,0.4c-1,0.4-1.7,0.7-2.5,1C204.3,14.7,204.1,14.7,203.8,14.5L203.8,14.5z M202.8,17.5c0.3-0.2,0.6-0.6,0.9-0.6
	c1.1,0,2.3,0.2,3.4,0.3v0.4c-0.8,0.5-1.6,0.9-2.5,1.1C204.1,18.8,203.4,18,202.8,17.5L202.8,17.5z M192.8,49.2
	c-0.8,1-0.4,2.9-0.5,4.1c0.1,0.6,0.1,1.3,0,1.9c0,0.1,0,0.3,0,0.4c0,0.1-0.1,0.2-0.2,0.2l0,0l0,0l0,0c-0.3,0-0.5-0.2-0.5-0.5
	c0-0.1,0-0.1,0-0.2l0,0c0-0.3,0-0.6,0-0.9c-0.1-0.8-0.2-1.6-0.2-2.4c-0.1-1.1,0.1-7.3,2.7-6.3c1,0.4,2,3,1.7,4c0,0.1,0,0.1-0.1,0.2
	C194.9,51,192.9,49.1,192.8,49.2L192.8,49.2z M194,60.8c0.2,0.2,0.4,0.4,0.6,0.6c0.1,0.3-0.2,0.8-0.6,0.5c-0.4-0.5-0.8-1-0.9-1.6
	c-0.2-0.4-0.4-0.8-0.5-1.2l0,0c0.4,0.1,0.6,0.7,0.8,1C193.6,60.4,193.8,60.5,194,60.8z M195.3,58.3c-0.9,1.2-2.3-0.3-2.5-1.3
	c0-1.6,0.5-3.2,1.5-4.5c0.1-0.2,0.5-1,0.8-0.9c0.2,0.1,0.5,0.5,0.4,0.7C194.5,54.1,196.3,57,195.3,58.3L195.3,58.3z M257.7,64.6
	c0.4-1.1,1.4-2.8,0.9-4c0,0-2.6,1-2.9-0.5c0-0.1,0-0.1,0-0.2c0-1.1,1.9-3.2,3-3.2c2.8-0.1,0.9,5.8,0.4,6.8c-0.5,1-0.8,1.8-1.2,2.6
	c-0.1,0.1-0.7,1.5-0.9,1c-0.1-0.2-0.1-0.5,0-0.7C257.1,65.8,257.4,65.2,257.7,64.6L257.7,64.6z M255.1,62.6c0-0.2,0.4-0.5,0.6-0.5
	c0.4,0,0.4,0.9,0.5,1.1c0.5,1.5,0.5,3.2-0.1,4.7c-0.5,0.9-2.4,1.8-2.8,0.4C252.7,66.8,255.5,64.6,255.1,62.6L255.1,62.6z M255.5,70
	L255.5,70c-0.1,0.4-0.6,0.7-0.9,1s-0.9,1-1.5,1.2c-0.6,0.1-0.6-0.4-0.4-0.7c0.2-0.2,0.5-0.3,0.7-0.4c0.3-0.1,0.5-0.3,0.8-0.5
	S255.2,70.1,255.5,70L255.5,70z M267.2,84.5c-6,2-14.3,1.5-17.9-4.3c-0.3-0.5-0.6-0.9-0.8-1.4c0.1-0.4,0.2-0.7,0.3-1.1
	c0.1-0.4,1-0.8,1.1-0.7c2.1,1.5,3.5,0.1,4.6-1.3c1.1-0.9,2-1.9,2.9-3c2.5-2.9,5.1-7.9,5-11.8c0-2-0.1-4-0.1-6
	c0.1-1.4-0.9-2.6-2.2-2.9c-1.3-0.2-1.4-0.6-1.2-1.5l0,0c2.2-4,3-8.6,5-12.7c0.6-1.3,0.8-2.6,0.6-4c-0.2-3-0.6-6.1-1.2-9.1
	c-0.7-2.3-1.7-4.5-2.9-6.5c-0.6-1-1.9-1.6-3-2.2c-0.7-0.4-1.2-0.2-1.2,0.8c0,0.5,0.1,1.1,0.2,1.6c0.2,0.6,0.1,1.7,1.4,0.7
	c0.4-0.3,1.7,0.7,2.5,1.1c-0.5,0.4-1,0.8-1.6,1.1c-0.4,0.2-1,0.2-1.4,0.3c-1.2,0.5-2.3,1-3.4,1.6c-1.3,0.8-1.5,1.8-0.6,3.2
	c0.9,1.2,1.6,2.6,2.1,4c0.3,1.3,1.5,2.1,2.8,1.8c0,0,0.1,0,0.1,0c0.9-0.1,1.8-0.3,2.7-0.4c0.5,0.1,0.9,0.2,1.3,0.5
	c-0.4,0.2-0.8,0.3-1.2,0.4c-0.7,0.1-1.4,0-2.1,0c-2,0.1-2.5,0.8-1.6,2.5c1.1,2,1.2,4.5,0.2,6.6c-1.7,3.7-2.6,7.8-3.9,11.7
	c0,0.1,0,0.2,0,0.3c-0.8,1.1-1.5,2.8,0.1,3c0.6,0.1,1.4-0.8,2-1.3c0.6-0.6,0.6-1.3,1.1-1.8c0.5-0.4,1.6-1.3,2.2-1.1
	c0.8,0.3,2,1.3,2.1,2c0.3,3.9,0.4,7.8-0.9,11.4c-1.3,1.9-2.5,3.7-3.9,5.5c-1.3,1.6-2.8,5.4-5.4,5.1c-0.8-0.2-1.2-1-1-1.7
	c0,0,0,0,0,0c0.6-2.4,1.3-4.7,1.9-7c0.4-1.5,0.8-3.1,1.1-4.7c0.1-0.2-0.1-0.6-0.2-0.8c-0.2,0.2-0.4,0.4-0.5,0.6
	c-0.5,1.5-1,3-1.5,4.5c-1,3.3-2,6.7-3.1,10c-1.5-3.1-2.7-6.5-4.7-9.4c-3.2-4.5-8.2-7.5-13.9-6.6c-1.9,0.4-3.7,1.4-5,2.9
	c-0.7-1.8-2-3.4-3.7-4.4c-5-2.8-10.8-1.7-15.3,1.5c-2.9,2-5.1,4.8-7.7,7.2c0.1-3.5,0.4-7,0.5-10.4c0.1-1.6,0.1-3.2,0.2-4.8
	c-0.1-0.3-0.2-0.5-0.3-0.7c-0.2,0.2-0.5,0.4-0.5,0.7c-0.2,1.6-0.4,3.2-0.5,4.8c-0.2,2.4-0.4,4.8-0.6,7.3c0,0.6-0.4,1.2-1,1.4
	c-0.3,0.1-0.6,0-0.9-0.1c-0.4-0.2-0.5-0.6-0.8-0.9c-0.7-0.8-1.2-1.7-1.5-2.7c-0.3-1.1-0.4-2.2-0.7-3.3c-0.3-1.1-0.7-2.2-1-3.4
	l-0.4-1.7c-0.8-3.2,0.4-6.6,1.6-9.6c0.4-0.9,0.8-1.8,1.2-2.7c0.6-0.8,1.6-1.2,2.6-1.2c0.6,0,1.3,1.1,1.7,1.8c0.3,0.6,0.1,1.4,0.4,2
	s0.8,1.8,1.4,1.9c1.3,0.3,1.3-1,1.4-1.8c0.2-1.1,0.1-2.2,0.4-3.2c0.7-2.2,1.5-4.4,2.2-6.6c0.2-0.6,0-1.4,0.2-2c1-2.5,2.1-5,3.2-7.5
	c0.8-1.8,1.8-3.6,4.1-4c0.9-0.2,1.8-0.5,2.6-0.8c1.9-0.7,2-1.8,0.5-3.1c-0.4-0.4-0.8-0.8-1.1-1.2c0.6,0.2,1.1,0.4,1.6,0.7
	c0.5,0.4,0.9,1.1,1.3,1.6c0.5,0.5,0.9,1,1.3,0.9c2.1-0.4,4.1,0.2,6.1,0.8c0.1,0,0.3,0,0.4,0c2.8,0.4,5.8,0.1,8.3,1.8
	c0.1,0.1,0.9-0.3,0.9-0.6c0-0.7-0.1-1.3-0.2-2c-0.1-0.4-0.1-0.9-0.2-1.3c0.3,0.4,0.6,0.8,0.8,1.2c0.2,0.5,0.2,1.2,0.5,1.6
	c0.5,0.7,1.1,1.3,1.8,1.7c0.9,0.4,1.8,0.6,2.7,0.7c1,0.2,2.3,0.8,2.6-1c0.1-0.4,0.2-0.7,0.3-1.1c0.1,0.4,0.1,0.7,0.2,1.1
	c0.1,0.6,0.3,1.1,0.4,1.7c0.5-0.2,1-0.4,1.5-0.6c0.2,0,0.5,0,0.7,0c0.5,0,1.2,0.2,1.4,0c0.7-0.8,0.8-0.4,1,0.3
	c0.2,0.2,0.4,0.3,0.7,0.3c1.7-0.4,3.5-0.7,5.2-1.2c2.7-0.8,4-3.6,2.7-5.7c-0.4-0.7-1.3-1.1-1.9-1.6c-0.3-0.3-0.5-0.6-0.7-1
	c0,0.4-0.1,0.7-0.1,1.1c-0.1,0.4-0.1,0.8-0.2,1.2c-0.4-0.2-0.8-0.5-1.1-0.8c-0.2-0.2-0.2-0.5-0.3-0.7c-0.3-0.4-0.6-0.9-0.9-1.3
	c0,0.6,0.1,1.1,0.2,1.7c0,0.2,0.2,0.4,0.2,0.6c0.1,0.4,0.1,0.8,0.2,1.2c-0.2-0.3-0.5-0.6-0.8-1c-0.3-0.3-0.6-1-0.8-0.9
	c-1.8,0.5-1.9-1.3-2.7-2c-0.5-0.6-0.9-1.2-1.2-1.9c0.6,0.2,1.3,0.4,1.9,0.5c0.3,0,0.5,0,0.8,0c-0.2-0.2-0.3-0.4-0.5-0.6
	c-0.8-0.9-1.7-1.8-2.5-2.8c-0.2-0.3-0.3-0.6-0.4-0.9c0.4,0.1,0.7,0.2,1.1,0.4c0.3,0.3,0.6,0.6,0.9,0.9c0.9,1,1.9,2,2.9,2.9
	c0.4,0.3,1.3,0.2,1.9,0.2c0-0.4,0-0.7,0-1.1c0-0.2,0.5-0.2,0.6-0.3c0.4-0.8,1-0.1,1.3-0.2c1-0.5,0.9-0.6,1.3,0.6
	c0.1,0.6,0.3,1.2,0.5,1.8c0.2,0.3,0.4,0.6,0.7,0.9c0.2-0.4,0.3-0.7,0.3-1.1c-0.6-3.7-2-7.5-6.9-8.4c-4.2-0.8-8.2-2.2-12-4.2L231.5,0
	c-0.5,0.2-0.9,0.3-1.4,0.3c-4.7-0.3-9.4,0.8-13.6,3c-4,2-8,4-12,6.2c-2.4,1.4-4.3,3.7-5.2,6.4c-3,7.5-3.3,15.3-3.1,23.2
	c0,1.4-0.1,1.9-1.6,1.6c-1.4-0.3-2.7,0.6-3.1,1.9c-0.8,1.9-1.5,3.7-2.2,5.6c-1.4,3.6-0.7,9.2,0.6,12.7c0.4,1.3,1,2.6,1.7,3.8
	c0.5,1.7,1.3,3.5,3.8,2.8c0.2,0,0.8,0.7,0.8,1c0,0.3,0,0.7-0.1,1.1c-0.4,0.4-0.8,0.7-1.3,1.1c-5.4,4.3-13.4,1.9-18.3-2
	c-0.6-0.5-1.5,0.5-0.9,1c4.9,4.1,11.1,6.3,17.5,6.1c1.2-0.1,2.4-0.2,3.6-0.5c0.8,3,2.1,5.9,3.6,8.5c2.5,4.5,5.7,8.4,9.6,11.7
	c1.8,1.5,4,2.5,6.2,3.1c3.1,0.9,6.4,1.5,9.6,0.8c4.3-1,7.1-3.9,10.6-6.2c1.4-0.9,2.8-1.9,4.1-3c1.8-1.7,3.5-3.7,4.8-5.8l0.5-0.8
	c1,0.6,2.1,1.2,3.2,1.7c6,2.3,12.5,2.3,18.5,0.1C268.4,85.5,267.9,84.3,267.2,84.5L267.2,84.5z M244.4,84.2
	c-1.6,2.1-3.4,4.1-5.4,5.8c-2.6,2.4-5.4,4.6-8.4,6.5c-0.5,0.3-1,0.5-1.5,0.8c-0.7,0.3-1.4,0.6-2.1,0.9c-0.6,0.1-1.2,0.3-1.8,0.4
	c-5.6,0.8-12.2-0.9-16-5.2c-1.4-1.6-2.8-3.2-4.1-4.8c-3.4-4.1-6.2-8.4-7.2-13.4c1.6-0.4,3.1-0.6,4.7-0.8c3.5-0.4,7-0.3,10.5-0.5
	c3-0.2,6.6-0.2,9.2-1.9c0.2-0.1,0.4-0.3,0.5-0.4c0.1,0.2,0.2,0.4,0.4,0.6c1.8,2.5,5.3,3.7,8,4.9c3.2,1.4,6.5,2.5,9.7,4.1
	c1.4,0.7,2.8,1.5,4.1,2.4C244.8,83.7,244.6,84,244.4,84.2L244.4,84.2z M157.6,48.4c-0.7-1.9-1.4-3.8-2.2-5.6v-0.1v-0.4
	c-0.1-1.8-0.2-3.6-0.4-5.4c-0.1-1-0.4-1.2-1.4-1.1l-2.5,0.3c0-3.3-0.3-6.7,0-10.1c0.1-1.4-0.2-2.8-0.8-4c-1.2-2.8-2.7-5.6-4.3-8.2
	c-1.4-2-3.1-3.7-4.9-5.2c-0.9-0.7-2.3-0.8-3.5-1.1c-0.8-0.2-1.2,0.3-0.8,1.1c0.2,0.5,0.5,1,0.8,1.5c0.4,0.5,0.6,1.5,1.5,0.2
	c0.3-0.4,1.8,0.1,2.7,0.2c-0.3,0.5-0.7,1-1.1,1.5c-0.3,0.3-0.8,0.5-1.2,0.8c-0.9,0.8-1.8,1.7-2.6,2.7c-0.9,1.2-0.8,2.2,0.5,3.2
	c1.2,0.9,2.4,1.9,3.3,3c0.7,1.1,2.1,1.4,3.1,0.8c0,0,0.1-0.1,0.1-0.1c0.8-0.4,1.5-1,2.4-1.3c0.5-0.1,0.9-0.1,1.4,0
	c-0.3,0.3-0.6,0.6-1,0.8c-0.6,0.3-1.3,0.4-2,0.7c-1.8,0.8-2,1.5-0.6,2.9c1.8,1.5,2.7,3.8,2.4,6.1c-0.1,1.6-0.1,3.3,0,4.9
	c-5.9,0.9-11.7,1.8-17.3,4.1c-1.9,0.7-3.8,1.6-5.6,2.6c-2.4,1.6-5.4,2.1-8.1,1.3c-0.8-0.2-1.7-0.3-2.5-0.4
	c-6.4-0.3-12.7,0.2-18.9,1.6L93.9,46c0-0.5,0-1-0.1-1.6c0-0.6-0.5-1.3-0.5-1.9c0.1-2.7,0.2-5.4,0.4-8.1c0.1-2,0.4-4,2.5-5.1
	c0.8-0.5,1.5-1,2.1-1.7c1.5-1.3,1.2-2.4-0.6-3.1c-0.5-0.2-1-0.5-1.4-0.8c0.6,0,1.2,0,1.7,0.1c0.6,0.2,1.2,0.8,1.8,1.1
	c0.6,0.3,1.2,0.6,1.5,0.4c1.8-1.1,3.9-1.2,5.9-1.2c0.1,0,0.3-0.1,0.4-0.1c2.7-0.6,5.4-1.9,8.3-1.1c0.1,0,0.7-0.6,0.6-0.8
	c-0.2-0.6-0.6-1.3-0.9-1.8l-0.6-1.2c0.4,0.2,0.8,0.5,1.2,0.8c0.4,0.4,0.5,1.1,1,1.3c0.7,0.5,1.4,0.8,2.3,1c0.9,0,1.8-0.1,2.7-0.3
	c1-0.2,2.4-0.1,2.1-1.9c-0.1-0.4-0.1-0.7-0.1-1.1c0.2,0.3,0.4,0.7,0.6,1l1,1.4c0.4-0.4,0.8-0.7,1.2-1.1c0.2-0.1,0.5-0.2,0.7-0.2
	c0.5-0.1,1.2-0.2,1.3-0.5c0.4-1,0.6-0.7,1.1-0.1c0.2,0.1,0.5,0.1,0.7,0c1.5-0.9,3-1.9,4.4-2.9c2.2-1.7,2.4-4.7,0.5-6.4
	c-0.7-0.4-1.5-0.7-2.3-0.9c-0.4-0.2-0.7-0.4-1-0.7c0.1,0.4,0.2,0.7,0.3,1.1s0.1,0.8,0.2,1.2c-0.4-0.1-0.9-0.2-1.3-0.3
	c-0.2-0.1-0.3-0.4-0.6-0.6c-0.4-0.3-0.8-0.6-1.3-0.9c0.2,0.5,0.5,1,0.7,1.5c0.1,0.2,0.3,0.3,0.4,0.5c0.2,0.3,0.4,0.7,0.6,1.1
	c-0.3-0.2-0.7-0.5-1-0.7s-0.9-0.7-1-0.6c-1.5,1.1-2.2-0.6-3.2-1c-0.7-0.4-1.3-0.8-1.8-1.4c0.6,0,1.3-0.1,1.9-0.1
	c0.3-0.1,0.5-0.2,0.7-0.3c-0.2-0.2-0.4-0.3-0.7-0.4c-1.1-0.6-2.2-1.2-3.3-1.8c-0.3-0.2-0.4-0.5-0.7-0.7c0.4-0.1,0.8-0.1,1.1,0
	c0.4,0.1,0.8,0.3,1.1,0.5c1.2,0.7,2.4,1.2,3.7,1.7c0.5,0.2,1.2-0.3,1.9-0.5c-0.1-0.3-0.3-0.7-0.3-1.1c0-0.2,0.4-0.3,0.4-0.5
	c0-0.9,0.9-0.4,1.1-0.7c0.7-0.8,0.6-0.9,1.4,0.2c0.3,0.5,0.7,1,1.1,1.5c0.3,0.3,0.6,0.5,0.9,0.6c0-0.4,0-0.8-0.1-1.2
	c-1.8-3.3-4.4-6.4-9.3-5.6c-4.1,0.7-8.4,0.7-12.5,0.1l-4.5,0.8c-0.4,0.3-0.7,0.6-1.2,0.8c-4.5,1.3-8.5,3.9-11.6,7.4
	c-3,3.3-6.1,6.6-9,9.9c-1.8,2.2-2.8,5-2.7,7.9c-0.2,7.1,1.6,13.7,4,20.2l-2.5,0.5c-1.3,0.3-1.4,0.7-1.1,2.1c0.5,1.7,1,3.3,1.4,5
	c0,0,0,0.1,0,0.1c-0.1,2-0.1,4-0.1,6.1c-0.1,3.9,2.5,9,4.9,11.9c0.9,1.1,1.8,2.1,2.9,3c1.1,1.4,2.4,2.9,4.5,1.3
	c0.1-0.1,1,0.4,1.1,0.7c1.3,5.6,5,9.6,9.1,13.2c3.8,3.4,8.2,6,12.9,7.9c2.2,0.8,4.5,1.1,6.8,1c3.1-0.2,6.5-0.7,9.1-2.5
	c3.6-2.4,5.2-6.1,7.7-9.4c1-1.3,1.9-2.7,2.7-4.2c1.1-2.3,1.9-4.7,2.5-7.1c0.3-0.9,0.5-1.8,0.6-2.8l0,0l0,0c0.3-1.7,0.3-3.4,0.1-5.1
	c0-0.3,0.6-1.1,0.8-1c2.5,0.7,3.2-1.1,3.8-2.8c0.7-1.2,1.2-2.5,1.7-3.8C158.4,57.7,159,52,157.6,48.4z M97.4,76.7
	c-0.3,0.2-0.6,0.2-0.9,0.2c-0.4,0-0.7-0.4-1-0.6c-0.8-0.5-1.6-1.2-2.2-1.9c-0.7-0.9-1.1-2-1.8-2.9c-0.7-0.9-1.4-1.9-2.1-2.9
	c-0.3-0.5-0.6-0.9-1-1.4c-1.9-2.7-1.9-6.4-1.8-9.7c0-0.2,0-0.5,0-0.7c0.2,0.2,0.4,0.4,0.6,0.5c0.2,0.1,0.4,0.2,0.5,0.4
	c-0.6,1.7,0.6,5.2,0.9,5.9s0.6,1.5,1,2.2c0.1,0.3,0.2,0.6,0.3,0.9l0,0c0,0.1,0,0.1,0.1,0.2c0.1,0.2,0.4,0.4,0.6,0.3l0,0l0,0
	c0.1,0,0.1-0.1,0.1-0.2c0-0.2-0.1-0.3-0.1-0.4c-0.1-0.6-0.4-1.3-0.7-1.8c-0.4-1.1-1.3-2.8-1-4c0.5,0.2,1,0.3,1.6,0.3l0.1,0.1
	c0.5,0.5,1,0.8,1.7,1c0.8,0.2,1.5,0.4,2.3,0.4h0.1c-0.1,0.2-0.2,0.4-0.2,0.7c0.3,1.6,0.7,3.1,1.1,4.7c0.6,2.4,1.3,4.7,1.9,7.1
	C98,75.6,97.9,76.3,97.4,76.7L97.4,76.7z M149.1,58.4c0.2,4.1,0.5,8.1,0.6,12.2c0,2-0.2,4-0.7,6c-0.8,2.5-1.8,5-3,7.4
	c-1.6,3.2-3.4,6.2-5.5,9l-1.1,1.2c-0.5,0.6-1.1,1.1-1.6,1.6c-0.5,0.4-1,0.7-1.6,1c-4.9,2.6-11.6,3.3-16.6,0.5
	c-1.8-1-3.6-2.1-5.4-3.1c-6-3.6-11.1-8-13.5-14.9c-1.3-3.8-2.4-7.8-3.6-11.6c-0.5-1.5-1-3-1.5-4.6c-0.1-0.2-0.2-0.3-0.3-0.4
	c5.5,0.1,11-0.5,16.3-1.8c2.9-0.5,5.1-2.9,5.3-5.9c0.2-1.4,0.5-2.8,0.8-4.2c0.1-0.9,0.8-1.6,1.7-1.8l1.8-0.3
	c1.8-0.3,2.1-0.1,3.1,1.5c0.8,1.3,1.6,2.7,2.5,4c1.1,1.9,3.3,3,5.5,2.8c5.6-0.5,11.1-1.7,16.3-3.7l0.5-0.2c-0.1,0.1-0.1,0.3-0.1,0.4
	C149,55.2,149.1,56.8,149.1,58.4L149.1,58.4z M157.5,53.8c-0.5,2.2-1,4.4-1.7,6.5c-0.6,1.9-0.7,6.1-3.2,6.7
	c-0.8,0.1-1.5-0.5-1.5-1.3c0,0,0,0,0,0c-0.3-2.4-0.4-4.9-0.6-7.3c-0.1-1.6-0.3-3.2-0.5-4.8c-0.1-0.2-0.2-0.4-0.3-0.5
	c1.4-0.6,2.6-1.6,3.4-2.9c0.5-0.2,0.9-0.5,1.3-0.8c0.8,1,0.4,2.9,0.5,4.1c-0.1,0.7-0.1,1.4,0,2.1c0,0.2,0.1,0.5,0.2,0.6
	c0.4,0.4,0.5-1.1,0.5-1.3c0.1-1,0.2-2,0.2-2.9c0.1-0.8,0-4.4-1.1-5.8c0.1-0.2,0.3-0.5,0.4-0.7c0.1-0.2,0.2-0.4,0.3-0.6
	C156.6,47.6,157.3,50.7,157.5,53.8L157.5,53.8z M94.8,68.6c-0.4,1.4-2.3,0.5-2.7-0.4c-0.6-1.5-0.6-3.2-0.1-4.8
	c0.1-0.2,0.1-1.1,0.5-1.1c0.2,0,0.7,0.3,0.6,0.5C92.5,64.9,95.2,67,94.8,68.6L94.8,68.6z M95.1,71.8c0.3,0.3,0.1,0.8-0.4,0.7
	c-0.4-0.1-1-0.8-1.4-1.2c-0.4-0.4-0.8-0.6-0.9-1 M92.4,70.3c0.4,0,0.8,0.4,1.1,0.6c0.3,0.2,0.5,0.3,0.8,0.5c0.3,0.1,0.5,0.3,0.8,0.4
	L92.4,70.3z M152.7,52.6c1,1.3,1.5,2.9,1.5,4.5c-0.1,1-1.6,2.5-2.4,1.4c-1-1.3,0.8-4.3-0.3-6.1c-0.1-0.2,0.2-0.6,0.4-0.7
	C152.2,51.6,152.5,52.4,152.7,52.6L152.7,52.6z M154.5,59.3C154.5,59.3,154.5,59.3,154.5,59.3c0,0.4-0.2,0.8-0.4,1.2
	c-0.2,0.6-0.5,1.2-0.9,1.6c-0.3,0.3-0.7-0.2-0.6-0.5c0.1-0.2,0.3-0.5,0.5-0.6c0.2-0.2,0.4-0.5,0.6-0.7
	C153.8,60,154.1,59.4,154.5,59.3L154.5,59.3z M115.7,49c0.4,2.9-0.1,5.8-1.5,8.4c-0.6,1.1-1.7,1.9-2.9,2.1
	c-5.1,1.5-10.5,2.1-15.8,1.7c-2.6,0-4.9-1.8-5.6-4.3c-0.6-1.7-1.1-3.4-1.5-5.1c-0.4-1.1,0.3-2.4,1.4-2.7c0.1,0,0.2,0,0.2-0.1
	c2.6-0.8,5.3-1.5,8-2.2l0.1,0.2c4.6-1,9.4-1.3,14.1-0.9c0.4,0,0.7,0.1,1.1,0.2C115,46.6,115.5,47.1,115.7,49L115.7,49z M151.7,49
	c-0.3,0.6-0.7,1.2-1.3,1.6c-1.9,1.4-4,2.4-6.3,2.9c-3.2,0.8-6.5,1.3-9.8,2c-3.2,0.7-5.5-1-7.2-3.9c-1-1.6-1.6-3.4-1.9-5.3
	c-0.2-0.9,0.3-1.9,1.2-2.3c2.7-1.5,5.7-2.7,8.7-3.4c2-0.6,4.1-1,6.9-1.6c1.9-0.2,4.6-0.5,7.4-0.6c1.6-0.1,2.4,0.6,2.7,2.4
	C152.6,43.5,152.5,46.3,151.7,49L151.7,49z"/>
</svg>
